<svg width="163" height="24" viewBox="0 0 163 24" fill="none" xmlns="http://www.w3.org/2000/svg">
<g clip-path="url(#clip0_603_101)">
<path d="M27.5542 7.99438C28.2665 9.22831 28.1151 10.7801 27.1774 11.8523L17.8996 22.465C17.5871 22.8225 17.2019 23.1089 16.7696 23.3051C16.3373 23.5013 15.8681 23.6028 15.3934 23.6027H7.21391C6.6295 23.6028 6.05538 23.4489 5.5493 23.1567C5.04322 22.8644 4.62303 22.444 4.33099 21.9378L0.446906 15.2082C0.154302 14.702 0.000244141 14.1276 0.000244141 13.5429C0.000244141 12.9582 0.154302 12.3838 0.446906 11.8775L4.53665 4.7927C4.77391 4.38136 5.09645 4.02556 5.48261 3.7492C5.86877 3.47284 6.3096 3.28233 6.77549 3.19045L20.6011 0.460845C21.2829 0.325851 21.9898 0.407688 22.6227 0.694874C23.2556 0.98206 23.7827 1.46018 24.13 2.06215L27.5542 7.99438Z" fill="#38E7BD"/>
<path fill-rule="evenodd" clip-rule="evenodd" d="M18.8922 5.62748C19.2484 5.63869 19.6307 5.74339 19.9233 6.04159C20.3739 6.49403 20.3842 7.1325 20.2804 7.65692C20.1729 8.20845 19.9065 8.8329 19.5419 9.47978C19.3487 9.82752 19.1237 10.1887 18.867 10.5632C19.1492 11.6223 19.0677 12.7455 18.6357 13.7528C18.2037 14.7601 17.446 15.5932 16.4842 16.1187C15.3928 16.7084 14.1198 16.8672 12.917 16.5637C12.5467 16.821 12.1643 17.0602 11.7709 17.2807C11.1194 17.6434 10.4921 17.9051 9.93874 18.0098C9.41057 18.1108 8.77117 18.0967 8.3206 17.6452C8.02333 17.348 7.91583 16.9619 7.90462 16.5983C7.8934 16.2393 7.97286 15.8542 8.10092 15.469C8.34117 14.7492 8.79548 13.9098 9.40029 13.032C9.08318 11.7876 9.26789 10.4685 9.91458 9.35909C10.5613 8.24967 11.6181 7.43891 12.8572 7.10165C13.6775 6.87913 14.5416 6.8743 15.3643 7.08763C16.2402 6.50806 17.075 6.05748 17.791 5.82005C18.165 5.69478 18.5398 5.61813 18.8922 5.62748ZM16.8329 7.74199C16.9139 7.79558 16.994 7.85167 17.0731 7.91025L17.0759 7.91212L17.4769 8.21874C16.8011 9.36106 15.7205 10.7343 14.3734 12.0991C13.0488 13.4396 11.6999 14.5081 10.5669 15.1811L10.2369 14.7717C10.1685 14.6818 10.1033 14.5895 10.0416 14.495C9.72373 15.025 9.49658 15.4989 9.3657 15.8916C9.26662 16.1907 9.23296 16.4122 9.23857 16.5581C9.23738 16.6066 9.24564 16.6548 9.26288 16.7002C9.28344 16.7114 9.38907 16.7562 9.69008 16.7002C10.0472 16.6319 10.5333 16.4422 11.1241 16.114C11.4481 15.9339 11.7909 15.7196 12.1523 15.4709C13.2274 14.6941 14.2344 13.8272 15.1624 12.8796C16.172 11.8588 17.0507 10.8193 17.7378 9.84996C17.9858 9.491 18.1999 9.15073 18.38 8.82916C18.7109 8.2393 18.9034 7.75508 18.9726 7.39985C19.0306 7.10446 18.9866 6.99976 18.9764 6.982C18.9364 6.96816 18.8943 6.96121 18.852 6.96143C18.7137 6.95769 18.5034 6.98854 18.2117 7.0867C17.8238 7.21476 17.3582 7.43631 16.8338 7.74106L16.8329 7.74199Z" fill="black"/>
</g>
<g clip-path="url(#clip1_603_101)">
<path d="M125.96 19.9989C123.942 19.9989 122.395 19.5201 121.32 18.5625C120.244 17.6048 119.707 16.2054 119.707 14.364V9.6353C119.707 7.79396 120.244 6.39448 121.32 5.43685C122.395 4.47936 123.942 4.00061 125.96 4.00061C127.978 4.00061 129.518 4.47943 130.578 5.43706C131.654 6.39455 132.191 7.79396 132.191 9.6353V14.364C132.191 16.2055 131.654 17.605 130.578 18.5625C129.518 19.5201 127.978 19.9989 125.96 19.9989ZM125.96 17.9438C127.124 17.9438 128.015 17.6418 128.634 17.0378C129.267 16.4191 129.584 15.5279 129.584 14.364V9.6353C129.584 8.47158 129.267 7.58773 128.634 6.98376C128.015 6.36494 127.124 6.05553 125.96 6.05553C124.782 6.05553 123.876 6.36494 123.242 6.98376C122.624 7.58773 122.314 8.47158 122.314 9.6353V14.364C122.314 15.5279 122.624 16.4191 123.242 17.0378C123.876 17.6418 124.782 17.9438 125.96 17.9438Z" fill="black"/>
<path d="M105.21 5.75148C105.21 5.34517 105.372 4.9555 105.659 4.66819C105.946 4.38089 106.336 4.21948 106.742 4.21948H110.889C112.583 4.21948 113.924 4.46995 114.911 4.97089C115.898 5.47182 116.612 6.28203 117.054 7.4015C117.496 8.50628 117.717 10.0236 117.717 11.9534C117.718 13.8832 117.497 15.4079 117.054 16.5276C116.612 17.6323 115.898 18.4353 114.911 18.9363C113.924 19.437 112.583 19.6874 110.889 19.6875H106.742C106.541 19.6875 106.342 19.6479 106.156 19.5709C105.97 19.4939 105.801 19.381 105.659 19.2387C105.517 19.0965 105.404 18.9275 105.327 18.7417C105.25 18.5558 105.21 18.3565 105.21 18.1553V5.75148ZM110.889 17.6324C111.935 17.6324 112.76 17.4483 113.364 17.0801C113.983 16.7117 114.425 16.1225 114.69 15.3122C114.97 14.4873 115.11 13.3677 115.11 11.9534C115.11 10.5391 114.97 9.42688 114.69 8.61681C114.425 7.79177 113.983 7.19514 113.364 6.82693C112.76 6.45871 111.935 6.27461 110.889 6.27461H109.35C108.944 6.27461 108.554 6.43601 108.267 6.72332C107.979 7.01063 107.818 7.4003 107.818 7.80661V16.1004C107.818 16.5067 107.979 16.8964 108.267 17.1837C108.554 17.471 108.944 17.6324 109.35 17.6324H110.889Z" fill="black"/>
<path d="M82.8375 19.9989C80.7752 19.9989 79.199 19.5201 78.1087 18.5625C77.0185 17.6048 76.4735 16.2054 76.4736 14.364V9.6353C76.4736 7.79396 77.0113 6.39448 78.0867 5.43685C79.1621 4.47922 80.7162 4.00047 82.7491 4.00061C84.1485 4.00061 85.305 4.22896 86.2184 4.68565C86.815 4.98292 87.3488 5.39241 87.7905 5.89172C88.1947 6.34702 88.0416 7.03416 87.5435 7.38403C87.0107 7.75826 86.2885 7.60265 85.8208 7.14966C85.5608 6.89807 85.2882 6.69542 85.0031 6.54169C84.4432 6.21772 83.6993 6.05574 82.7713 6.05574C80.3112 6.05574 79.0811 7.24892 79.0811 9.6353V14.364C79.0811 16.7505 80.3259 17.9438 82.8154 17.9438C83.8024 17.9438 84.598 17.7744 85.2019 17.4356C85.4971 17.2701 85.7729 17.0587 86.0296 16.8014C86.4903 16.3398 87.222 16.1776 87.747 16.5651C88.2353 16.9255 88.352 17.6193 87.9381 18.0633C87.4281 18.6106 86.8769 19.0348 86.2847 19.3359C85.4156 19.7778 84.2665 19.9988 82.8375 19.9989Z" fill="black"/>
<path d="M68.1728 19.9989C66.1546 19.9989 64.6079 19.5201 63.5325 18.5625C62.4571 17.6048 61.9194 16.2054 61.9194 14.364V9.6353C61.9194 7.79396 62.4571 6.39448 63.5325 5.43685C64.6079 4.47922 66.1546 4.00047 68.1728 4.00061C70.191 4.00075 71.7304 4.47957 72.7911 5.43706C73.8664 6.39455 74.4041 7.79396 74.4041 9.6353V14.364C74.4041 16.2055 73.8664 17.605 72.7911 18.5625C71.7304 19.5201 70.191 19.9989 68.1728 19.9989ZM68.1728 17.9438C69.3367 17.9438 70.2279 17.6418 70.8466 17.0378C71.48 16.4191 71.7967 15.5279 71.7967 14.364V9.6353C71.7967 8.47158 71.48 7.58773 70.8466 6.98376C70.2279 6.36494 69.3367 6.05553 68.1728 6.05553C66.9942 6.05553 66.0883 6.36494 65.4549 6.98376C64.8362 7.58773 64.5269 8.47158 64.5269 9.6353V14.364C64.5269 15.5279 64.8362 16.4191 65.4549 17.0378C66.0883 17.6418 66.9942 17.9438 68.1728 17.9438Z" fill="black"/>
<path d="M54.4971 19.9527C53.6869 19.9527 53.0461 19.7169 52.5747 19.2454C52.118 18.774 51.7129 17.9417 51.3594 16.7484L48.1589 5.81713C47.9252 5.01868 48.5239 4.2196 49.356 4.2196C49.6274 4.21969 49.8914 4.30832 50.108 4.47205C50.3245 4.63578 50.4817 4.86567 50.5557 5.12683L53.8344 16.7045C53.9226 16.9992 54.0109 17.2128 54.0994 17.3452C54.2026 17.4778 54.3352 17.5441 54.4971 17.5441C54.6446 17.5441 54.7698 17.4778 54.8728 17.3452C54.976 17.2126 55.0644 16.9991 55.1381 16.7045L58.4165 5.12683C58.4905 4.86563 58.6478 4.63572 58.8643 4.47198C59.0809 4.30825 59.345 4.21964 59.6165 4.2196C60.4483 4.2196 61.047 5.01868 60.8133 5.81713L57.6128 16.7486C57.2593 17.9419 56.8468 18.7742 56.3754 19.2456C55.9187 19.717 55.2926 19.9527 54.4971 19.9527Z" fill="black"/>
<path d="M42.3673 4.24438C43.1775 4.24438 43.8183 4.48008 44.2897 4.95148C44.7463 5.42287 45.1514 6.2552 45.505 7.44846L48.7055 18.3801C48.9393 19.1784 48.3405 19.9775 47.5085 19.9775C47.237 19.9774 46.973 19.8887 46.7565 19.725C46.54 19.5613 46.3828 19.3314 46.3087 19.0702L43.0301 7.49256C42.9419 7.19799 42.8535 6.98448 42.7649 6.85204C42.6618 6.71931 42.5293 6.65295 42.3673 6.65295C42.22 6.65295 42.0947 6.71924 41.9914 6.85183C41.8885 6.98455 41.8002 7.1982 41.7264 7.49277L38.4477 19.0702C38.3737 19.3314 38.2165 19.5613 38 19.725C37.7835 19.8887 37.5194 19.9774 37.248 19.9775C36.4161 19.9775 35.8174 19.1784 36.0509 18.3801L39.2514 7.44846C39.6051 6.2552 40.0176 5.42287 40.489 4.95148C40.9457 4.48008 41.5718 4.24438 42.3673 4.24438Z" fill="black"/>
<path d="M96.427 4.21948C97.2373 4.21948 97.8781 4.45518 98.3494 4.92657C98.8061 5.39797 99.2112 6.2303 99.5647 7.42355L102.765 18.3552C102.999 19.1535 102.4 19.9526 101.568 19.9526C101.297 19.9525 101.033 19.8638 100.816 19.7001C100.6 19.5364 100.443 19.3065 100.369 19.0453L97.09 7.46766C97.0015 7.17309 96.9131 6.95958 96.8247 6.82714C96.7217 6.69441 96.5891 6.62805 96.427 6.62805C96.2797 6.62805 96.1545 6.69434 96.0513 6.82693C95.9481 6.95965 95.8598 7.1733 95.7863 7.46787L92.5076 19.0453C92.4336 19.3065 92.2764 19.5364 92.0598 19.7002C91.8432 19.8639 91.5792 19.9525 91.3077 19.9526C90.4758 19.9526 89.8771 19.1535 90.1108 18.3552L93.3113 7.42355C93.665 6.2303 94.0774 5.39797 94.5487 4.92657C95.0054 4.45518 95.6315 4.21948 96.427 4.21948Z" fill="black"/>
<path d="M156.348 19.7253C155.036 19.7253 153.951 19.5327 153.095 19.1476C152.411 18.8228 151.769 18.3186 151.169 17.6351C150.93 17.3623 150.974 16.9505 151.247 16.7111C151.551 16.4444 152.015 16.4971 152.284 16.7999C152.749 17.3249 153.227 17.7151 153.716 17.9705C154.387 18.3128 155.236 18.484 156.263 18.4842C157.604 18.4842 158.638 18.2273 159.366 17.7136C160.108 17.2001 160.479 16.4796 160.479 15.5522C160.479 14.9673 160.343 14.5036 160.072 14.1612C159.801 13.8189 159.323 13.5264 158.638 13.2838C157.953 13.0268 156.94 12.7629 155.599 12.492C154.13 12.2064 153.038 11.7356 152.325 11.0795C151.626 10.4233 151.276 9.54592 151.276 8.4473C151.276 7.1489 151.74 6.12876 152.667 5.38687C153.609 4.64499 154.9 4.27405 156.541 4.27405C157.711 4.27405 158.724 4.4809 159.58 4.89462C160.247 5.20613 160.797 5.63461 161.231 6.18007C161.444 6.44867 161.373 6.83172 161.107 7.04866C160.793 7.30549 160.329 7.23157 160.051 6.93588C159.701 6.56357 159.288 6.25645 158.831 6.02886C158.16 5.68655 157.383 5.5154 156.498 5.5154C155.371 5.5154 154.472 5.77217 153.802 6.2857C153.145 6.79924 152.817 7.49121 152.817 8.36162C152.817 9.13206 153.11 9.74556 153.695 10.2021C154.28 10.6444 155.243 11.0011 156.584 11.2721C157.996 11.5574 159.088 11.8785 159.858 12.2352C160.643 12.5918 161.199 13.0269 161.527 13.5406C161.855 14.04 162.019 14.6963 162.019 15.5094C162.019 16.8791 161.534 17.9277 160.564 18.6553C159.594 19.3686 158.189 19.7253 156.348 19.7253Z" fill="black"/>
<path d="M143 19.7253C141.103 19.7253 139.648 19.2617 138.635 18.3344C137.622 17.3927 137.115 16.0374 137.115 14.2683V9.73128C137.115 7.96219 137.622 6.61394 138.635 5.68655C139.648 4.74488 141.103 4.27405 143 4.27405C144.898 4.27405 146.353 4.74488 147.366 5.68655C148.379 6.61394 148.886 7.96219 148.886 9.73128V14.2683C148.886 16.0374 148.379 17.3927 147.366 18.3344C146.353 19.2617 144.898 19.7253 143 19.7253ZM143 18.4842C144.399 18.4842 145.469 18.1204 146.21 17.3927C146.967 16.6651 147.345 15.6236 147.345 14.2683V9.73128C147.345 8.37604 146.967 7.33455 146.21 6.6068C145.469 5.8792 144.399 5.5154 143 5.5154C141.602 5.5154 140.525 5.8792 139.769 6.6068C139.027 7.33441 138.656 8.3759 138.656 9.73128V14.2683C138.656 15.6235 139.027 16.665 139.769 17.3927C140.525 18.1204 141.602 18.4842 143 18.4842Z" fill="black"/>
</g>
<defs>
<clipPath id="clip0_603_101">
<rect width="28" height="24" fill="white"/>
</clipPath>
<clipPath id="clip1_603_101">
<rect width="126.02" height="16.0005" fill="white" transform="translate(36 3.99976)"/>
</clipPath>
</defs>
</svg>
