<svg width="173" height="24" viewBox="0 0 173 24" fill="none" xmlns="http://www.w3.org/2000/svg">
<path fill-rule="evenodd" clip-rule="evenodd" d="M8.93143 6.95314C12.2229 2.72343 17.3657 0 23.1429 0C23.3702 0 23.5882 0.0903059 23.749 0.251051C23.9097 0.411797 24 0.629814 24 0.857143C24 6.63543 21.2766 11.7771 17.0469 15.0697C17.2228 16.1717 17.1575 17.2987 16.8555 18.3731C16.5536 19.4474 16.0221 20.4434 15.2979 21.2924C14.5736 22.1413 13.6738 22.8231 12.6605 23.2906C11.6472 23.758 10.5445 24.0001 9.42857 24C9.20124 24 8.98323 23.9097 8.82248 23.749C8.66174 23.5882 8.57143 23.3702 8.57143 23.1429V18.4217C7.46049 17.5444 6.45629 16.5398 5.57943 15.4286H0.857143C0.629814 15.4286 0.411797 15.3383 0.251051 15.1775C0.0903059 15.0168 2.52553e-08 14.7988 2.52553e-08 14.5714C-9.02767e-05 13.4554 0.241983 12.3526 0.709512 11.3392C1.17704 10.3258 1.85889 9.42589 2.70801 8.70161C3.55713 7.97734 4.55329 7.44593 5.62774 7.14406C6.7022 6.84219 7.82935 6.77705 8.93143 6.95314ZM15.4286 6C14.7466 6 14.0925 6.27092 13.6103 6.75315C13.1281 7.23539 12.8571 7.88944 12.8571 8.57143C12.8571 9.25341 13.1281 9.90747 13.6103 10.3897C14.0925 10.8719 14.7466 11.1429 15.4286 11.1429C16.1106 11.1429 16.7646 10.8719 17.2468 10.3897C17.7291 9.90747 18 9.25341 18 8.57143C18 7.88944 17.7291 7.23539 17.2468 6.75315C16.7646 6.27092 16.1106 6 15.4286 6Z" fill="#606770"/>
<path d="M4.29712 17.9908C4.38739 17.9235 4.46352 17.839 4.52117 17.7423C4.57881 17.6456 4.61683 17.5384 4.63307 17.427C4.64931 17.3156 4.64344 17.202 4.6158 17.0929C4.58816 16.9837 4.53928 16.8811 4.47197 16.7908C4.40466 16.7005 4.32023 16.6244 4.22349 16.5667C4.12676 16.5091 4.01962 16.4711 3.90819 16.4548C3.79676 16.4386 3.68322 16.4445 3.57406 16.4721C3.4649 16.4997 3.36225 16.5486 3.27197 16.6159C2.39527 17.2681 1.71358 18.1475 1.30064 19.1591C0.887694 20.1707 0.759221 21.276 0.929115 22.3554C0.956744 22.5351 1.04084 22.7015 1.16925 22.8303C1.29766 22.9591 1.46371 23.0437 1.6434 23.0719C2.72287 23.2417 3.82821 23.1131 4.83983 22.6999C5.85145 22.2868 6.73083 21.6048 7.38283 20.7279C7.45231 20.6379 7.50318 20.5349 7.53247 20.425C7.56177 20.3152 7.5689 20.2005 7.55346 20.0879C7.53801 19.9752 7.5003 19.8667 7.44252 19.7688C7.38473 19.6708 7.30804 19.5853 7.21689 19.5173C7.12575 19.4493 7.02198 19.4001 6.91163 19.3726C6.80128 19.3451 6.68656 19.3398 6.57415 19.3571C6.46174 19.3743 6.35389 19.4138 6.25688 19.4731C6.15988 19.5325 6.07565 19.6106 6.00912 19.7028C5.61056 20.2388 5.09206 20.6741 4.49511 20.9737C3.89816 21.2734 3.23934 21.4291 2.5714 21.4285C2.5714 20.0228 3.24797 18.7736 4.29712 17.9908Z" fill="#606770"/>
<path d="M52.0738 10.8942V20.4861C51.5974 20.7792 51.0569 21.0357 50.4523 21.2556C49.8476 21.4755 49.2155 21.6587 48.5559 21.8053C47.9146 21.9702 47.255 22.0893 46.577 22.1626C45.9174 22.2359 45.2945 22.2725 44.7081 22.2725C43.0591 22.2725 41.5841 21.9977 40.2832 21.448C39.0007 20.8983 37.9105 20.1563 37.0127 19.2218C36.1332 18.2874 35.4552 17.2063 34.9788 15.9787C34.5208 14.7328 34.2917 13.4227 34.2917 12.0485C34.2917 10.601 34.5391 9.25432 35.0338 8.00839C35.5468 6.76245 36.2431 5.68142 37.1226 4.76529C38.0204 3.84916 39.0923 3.13458 40.3382 2.62155C41.5841 2.09019 42.9492 1.82452 44.4333 1.82452C46.2289 1.82452 47.6947 2.05355 48.8307 2.51161C49.9667 2.95135 50.9195 3.56516 51.689 4.35303L49.8201 6.35935C49.0139 5.58981 48.1619 5.05845 47.2641 4.76529C46.3663 4.45381 45.4227 4.29806 44.4333 4.29806C43.3156 4.29806 42.3079 4.50877 41.4101 4.93019C40.5123 5.33329 39.7427 5.88297 39.1014 6.57923C38.4601 7.27548 37.9654 8.1 37.6173 9.05277C37.2692 9.98723 37.0951 10.9858 37.0951 12.0485C37.0951 13.1479 37.2875 14.1739 37.6723 15.1267C38.057 16.0612 38.5884 16.8765 39.2663 17.5728C39.9443 18.269 40.7413 18.8187 41.6574 19.2218C42.5736 19.6066 43.5721 19.799 44.6532 19.799C45.5876 19.799 46.4671 19.7165 47.2916 19.5516C48.1345 19.3684 48.849 19.1119 49.4354 18.7821V13.3677H45.1204V10.8942H52.0738Z" fill="#606770"/>
<path d="M57.5794 16.1711C57.5794 16.7391 57.6985 17.2613 57.9367 17.7377C58.1932 18.1957 58.523 18.5897 58.9261 18.9195C59.3292 19.2493 59.7964 19.5058 60.3278 19.689C60.8591 19.8723 61.4088 19.9639 61.9768 19.9639C62.7464 19.9639 63.4151 19.7898 63.9831 19.4417C64.5511 19.0752 65.0733 18.5988 65.5497 18.0125L67.4186 19.4417C66.0444 21.219 64.1206 22.1076 61.647 22.1076C60.6209 22.1076 59.6865 21.9335 58.8437 21.5854C58.0191 21.2373 57.3137 20.7609 56.7274 20.1563C56.1594 19.5333 55.7196 18.8095 55.4082 17.985C55.0967 17.1422 54.9409 16.2352 54.9409 15.2641C54.9409 14.293 55.1058 13.3952 55.4356 12.5707C55.7838 11.7279 56.251 11.0041 56.8373 10.3995C57.442 9.77652 58.1566 9.29097 58.9811 8.94284C59.8056 8.59471 60.7034 8.42065 61.6745 8.42065C62.8288 8.42065 63.7999 8.62219 64.5878 9.02529C65.394 9.42839 66.0536 9.95974 66.5666 10.6194C67.0797 11.2606 67.4461 11.9935 67.666 12.8181C67.9042 13.6243 68.0233 14.4488 68.0233 15.2916V16.1711H57.5794ZM65.3848 14.1923C65.3665 13.6426 65.2749 13.1387 65.11 12.6806C64.9634 12.2226 64.7344 11.8286 64.4229 11.4988C64.1114 11.1507 63.7175 10.885 63.2411 10.7018C62.783 10.5003 62.2425 10.3995 61.6195 10.3995C61.0149 10.3995 60.456 10.5186 59.943 10.7568C59.4483 10.9766 59.0269 11.2698 58.6787 11.6363C58.3306 12.0027 58.0558 12.415 57.8542 12.873C57.671 13.3128 57.5794 13.7525 57.5794 14.1923H65.3848Z" fill="#606770"/>
<path d="M77.4135 10.8942H73.8681V16.8032C73.8681 17.1697 73.8773 17.5361 73.8956 17.9026C73.9139 18.2507 73.978 18.5714 74.088 18.8645C74.2162 19.1394 74.3994 19.3684 74.6376 19.5516C74.8942 19.7165 75.2606 19.799 75.737 19.799C76.0302 19.799 76.3325 19.7715 76.644 19.7165C76.9555 19.6616 77.2395 19.5608 77.496 19.4142V21.6679C77.2028 21.8328 76.818 21.9427 76.3416 21.9977C75.8836 22.071 75.5263 22.1076 75.2698 22.1076C74.317 22.1076 73.5749 21.9794 73.0436 21.7228C72.5305 21.448 72.1458 21.0999 71.8893 20.6785C71.6511 20.257 71.5045 19.7898 71.4495 19.2768C71.4129 18.7454 71.3945 18.2141 71.3945 17.6827V10.8942H68.5362V8.75045H71.3945V5.0951H73.8681V8.75045H77.4135V10.8942Z" fill="#606770"/>
<path d="M88.3641 17.7102C88.8405 18.4248 89.4452 18.9561 90.1781 19.3043C90.9293 19.6341 91.6988 19.799 92.4867 19.799C92.9264 19.799 93.3753 19.7348 93.8334 19.6066C94.2915 19.46 94.7037 19.2493 95.0702 18.9745C95.455 18.6996 95.7664 18.3606 96.0046 17.9576C96.2428 17.5545 96.3619 17.0872 96.3619 16.5559C96.3619 15.8046 96.1237 15.2366 95.6473 14.8519C95.171 14.4488 94.5755 14.119 93.8609 13.8625C93.1646 13.5876 92.3951 13.3311 91.5522 13.0929C90.7277 12.8364 89.9582 12.4883 89.2436 12.0485C88.5473 11.6088 87.961 11.0225 87.4846 10.2895C87.0082 9.53832 86.7701 8.53058 86.7701 7.26632C86.7701 6.69832 86.8892 6.09368 87.1273 5.45239C87.3839 4.8111 87.7778 4.22477 88.3092 3.69342C88.8405 3.16206 89.5184 2.72232 90.343 2.37419C91.1858 2.00774 92.1935 1.82452 93.3662 1.82452C94.4289 1.82452 95.4458 1.9711 96.4169 2.26426C97.388 2.55742 98.24 3.1529 98.9729 4.05071L96.8291 6.00207C96.4993 5.48903 96.0321 5.07677 95.4275 4.76529C94.8228 4.45381 94.1357 4.29806 93.3662 4.29806C92.6333 4.29806 92.0195 4.39884 91.5248 4.60039C91.0484 4.78361 90.6636 5.03097 90.3704 5.34245C90.0773 5.63561 89.8666 5.95626 89.7383 6.30439C89.6284 6.65252 89.5734 6.97316 89.5734 7.26632C89.5734 8.09084 89.8116 8.72297 90.288 9.16271C90.7644 9.60245 91.3507 9.95974 92.047 10.2346C92.7615 10.5094 93.5311 10.7568 94.3556 10.9766C95.1984 11.1965 95.968 11.508 96.6642 11.9111C97.3788 12.2959 97.9743 12.8272 98.4507 13.5052C98.9271 14.1648 99.1653 15.0809 99.1653 16.2535C99.1653 17.188 98.9821 18.0308 98.6156 18.7821C98.2675 19.5333 97.7911 20.1654 97.1864 20.6785C96.5818 21.1915 95.8672 21.5854 95.0427 21.8603C94.2182 22.1351 93.3387 22.2725 92.4043 22.2725C91.1583 22.2725 89.9765 22.0526 88.8588 21.6129C87.7411 21.1732 86.8525 20.4952 86.1929 19.5791L88.3641 17.7102Z" fill="#606770"/>
<path d="M108.858 10.8942H105.312V16.8032C105.312 17.1697 105.322 17.5361 105.34 17.9026C105.358 18.2507 105.422 18.5714 105.532 18.8645C105.661 19.1394 105.844 19.3684 106.082 19.5516C106.339 19.7165 106.705 19.799 107.181 19.799C107.474 19.799 107.777 19.7715 108.088 19.7165C108.4 19.6616 108.684 19.5608 108.94 19.4142V21.6679C108.647 21.8328 108.262 21.9427 107.786 21.9977C107.328 22.071 106.971 22.1076 106.714 22.1076C105.761 22.1076 105.019 21.9794 104.488 21.7228C103.975 21.448 103.59 21.0999 103.334 20.6785C103.095 20.257 102.949 19.7898 102.894 19.2768C102.857 18.7454 102.839 18.2141 102.839 17.6827V10.8942H99.9806V8.75045H102.839V5.0951H105.312V8.75045H108.858V10.8942Z" fill="#606770"/>
<path d="M111.554 10.3445C112.251 9.70323 113.057 9.22684 113.973 8.91536C114.889 8.58555 115.805 8.42065 116.721 8.42065C117.674 8.42065 118.49 8.53974 119.168 8.77794C119.864 9.01613 120.432 9.33678 120.872 9.73987C121.311 10.143 121.632 10.6102 121.833 11.1415C122.053 11.6546 122.163 12.1951 122.163 12.7631V19.4142C122.163 19.8723 122.172 20.2937 122.191 20.6785C122.209 21.0632 122.237 21.4297 122.273 21.7778H120.074C120.02 21.1182 119.992 20.4586 119.992 19.799H119.937C119.387 20.6418 118.737 21.2373 117.986 21.5854C117.234 21.9335 116.364 22.1076 115.375 22.1076C114.77 22.1076 114.193 22.0252 113.643 21.8603C113.094 21.6954 112.608 21.448 112.187 21.1182C111.784 20.7884 111.463 20.3853 111.225 19.9089C110.986 19.4142 110.867 18.8462 110.867 18.2049C110.867 17.3621 111.051 16.6566 111.417 16.0886C111.802 15.5206 112.315 15.0626 112.956 14.7145C113.616 14.348 114.376 14.0915 115.237 13.9449C116.117 13.78 117.051 13.6975 118.041 13.6975H119.855V13.1479C119.855 12.8181 119.79 12.4883 119.662 12.1585C119.534 11.8286 119.342 11.5355 119.085 11.279C118.829 11.0041 118.508 10.7934 118.123 10.6468C117.738 10.4819 117.28 10.3995 116.749 10.3995C116.273 10.3995 115.851 10.4453 115.485 10.5369C115.137 10.6285 114.816 10.7476 114.523 10.8942C114.23 11.0225 113.964 11.1782 113.726 11.3614C113.488 11.5446 113.258 11.7187 113.039 11.8836L111.554 10.3445ZM118.535 15.5115C117.949 15.5115 117.344 15.5481 116.721 15.6214C116.117 15.6764 115.558 15.7955 115.045 15.9787C114.55 16.1619 114.138 16.4185 113.808 16.7483C113.497 17.0781 113.341 17.4995 113.341 18.0125C113.341 18.7637 113.588 19.3043 114.083 19.6341C114.596 19.9639 115.283 20.1288 116.144 20.1288C116.822 20.1288 117.399 20.0188 117.876 19.799C118.352 19.5608 118.737 19.2585 119.03 18.892C119.323 18.5256 119.534 18.1225 119.662 17.6827C119.79 17.2246 119.855 16.7757 119.855 16.336V15.5115H118.535Z" fill="#606770"/>
<path d="M125.202 8.75045H127.675V10.7568H127.73C127.895 10.4086 128.115 10.0972 128.39 9.82232C128.665 9.52916 128.967 9.28181 129.297 9.08026C129.645 8.87871 130.021 8.72297 130.424 8.61303C130.827 8.48478 131.23 8.42065 131.633 8.42065C132.036 8.42065 132.403 8.47561 132.732 8.58555L132.622 11.2515C132.421 11.1965 132.219 11.1507 132.018 11.1141C131.816 11.0774 131.615 11.0591 131.413 11.0591C130.204 11.0591 129.279 11.3981 128.637 12.076C127.996 12.7539 127.675 13.8075 127.675 15.2366V21.7778H125.202V8.75045Z" fill="#606770"/>
<path d="M141.805 10.8942H138.26V16.8032C138.26 17.1697 138.269 17.5361 138.287 17.9026C138.306 18.2507 138.37 18.5714 138.48 18.8645C138.608 19.1394 138.791 19.3684 139.029 19.5516C139.286 19.7165 139.652 19.799 140.129 19.799C140.422 19.799 140.724 19.7715 141.036 19.7165C141.347 19.6616 141.631 19.5608 141.888 19.4142V21.6679C141.595 21.8328 141.21 21.9427 140.733 21.9977C140.275 22.071 139.918 22.1076 139.661 22.1076C138.709 22.1076 137.967 21.9794 137.435 21.7228C136.922 21.448 136.537 21.0999 136.281 20.6785C136.043 20.257 135.896 19.7898 135.841 19.2768C135.805 18.7454 135.786 18.2141 135.786 17.6827V10.8942H132.928V8.75045H135.786V5.0951H138.26V8.75045H141.805V10.8942Z" fill="#606770"/>
<path d="M146.316 16.1711C146.316 16.7391 146.435 17.2613 146.673 17.7377C146.93 18.1957 147.259 18.5897 147.663 18.9195C148.066 19.2493 148.533 19.5058 149.064 19.689C149.596 19.8723 150.145 19.9639 150.713 19.9639C151.483 19.9639 152.152 19.7898 152.72 19.4417C153.288 19.0752 153.81 18.5988 154.286 18.0125L156.155 19.4417C154.781 21.219 152.857 22.1076 150.383 22.1076C149.357 22.1076 148.423 21.9335 147.58 21.5854C146.756 21.2373 146.05 20.7609 145.464 20.1563C144.896 19.5333 144.456 18.8095 144.145 17.985C143.833 17.1422 143.677 16.2352 143.677 15.2641C143.677 14.293 143.842 13.3952 144.172 12.5707C144.52 11.7279 144.987 11.0041 145.574 10.3995C146.178 9.77652 146.893 9.29097 147.717 8.94284C148.542 8.59471 149.44 8.42065 150.411 8.42065C151.565 8.42065 152.536 8.62219 153.324 9.02529C154.13 9.42839 154.79 9.95974 155.303 10.6194C155.816 11.2606 156.183 11.9935 156.402 12.8181C156.641 13.6243 156.76 14.4488 156.76 15.2916V16.1711H146.316ZM154.121 14.1923C154.103 13.6426 154.011 13.1387 153.846 12.6806C153.7 12.2226 153.471 11.8286 153.159 11.4988C152.848 11.1507 152.454 10.885 151.977 10.7018C151.519 10.5003 150.979 10.3995 150.356 10.3995C149.751 10.3995 149.192 10.5186 148.679 10.7568C148.185 10.9766 147.763 11.2698 147.415 11.6363C147.067 12.0027 146.792 12.415 146.591 12.873C146.407 13.3128 146.316 13.7525 146.316 14.1923H154.121Z" fill="#606770"/>
<path d="M172.224 21.7778H169.75V19.9089H169.695C169.219 20.6052 168.559 21.1457 167.717 21.5305C166.892 21.9152 166.04 22.1076 165.161 22.1076C164.153 22.1076 163.237 21.9335 162.412 21.5854C161.606 21.2373 160.91 20.7517 160.323 20.1288C159.755 19.5058 159.316 18.7821 159.004 17.9576C158.693 17.133 158.537 16.2352 158.537 15.2641C158.537 14.293 158.693 13.3952 159.004 12.5707C159.316 11.7279 159.755 11.0041 160.323 10.3995C160.91 9.77652 161.606 9.29097 162.412 8.94284C163.237 8.59471 164.153 8.42065 165.161 8.42065C166.095 8.42065 166.974 8.62219 167.799 9.02529C168.623 9.41007 169.256 9.94142 169.695 10.6194H169.75V1H172.224V21.7778ZM165.463 19.799C166.122 19.799 166.718 19.689 167.249 19.4692C167.781 19.231 168.23 18.9195 168.596 18.5347C168.962 18.1316 169.246 17.6552 169.448 17.1055C169.65 16.5375 169.75 15.9237 169.75 15.2641C169.75 14.6045 169.65 13.9999 169.448 13.4502C169.246 12.8822 168.962 12.4058 168.596 12.021C168.23 11.6179 167.781 11.3065 167.249 11.0866C166.718 10.8484 166.122 10.7293 165.463 10.7293C164.803 10.7293 164.208 10.8484 163.676 11.0866C163.145 11.3065 162.696 11.6179 162.33 12.021C161.963 12.4058 161.679 12.8822 161.478 13.4502C161.276 13.9999 161.175 14.6045 161.175 15.2641C161.175 15.9237 161.276 16.5375 161.478 17.1055C161.679 17.6552 161.963 18.1316 162.33 18.5347C162.696 18.9195 163.145 19.231 163.676 19.4692C164.208 19.689 164.803 19.799 165.463 19.799Z" fill="#606770"/>
</svg>
