<svg width="479" height="103" viewBox="0 0 479 103" fill="none" xmlns="http://www.w3.org/2000/svg">
<path d="M152.716 65.5719C170.009 65.5719 185.731 59.5978 185.731 40.9419C185.731 26.7928 172.63 18.9322 154.393 18.9322H132.278C128.715 18.9322 126.409 19.561 126.409 22.2861C126.409 25.7447 131.859 25.9544 131.859 30.3563V78.7777C131.859 83.1797 126.409 83.2845 126.409 86.848C126.409 89.573 128.82 90.2019 132.278 90.2019H147.056C150.515 90.2019 152.926 89.573 152.926 86.848C152.926 83.2845 147.476 83.1797 147.476 78.7777V65.5719H152.716ZM150.934 26.2688H152.716C162.044 26.2688 168.647 33.5005 168.647 43.5621C168.647 54.567 160.786 58.3401 152.402 58.3401H147.476V30.5659C147.476 27.9457 148.209 26.2688 150.934 26.2688Z" fill="black"/>
<path d="M236.163 73.0133C235.115 73.0133 234.277 73.4325 233.229 74.4806C229.455 78.3585 226.102 80.1403 221.176 80.1403C211.848 80.1403 205.559 73.7469 204.197 63.5805H231.447C236.582 63.5805 238.888 61.3796 238.888 56.244C238.888 45.4487 231.028 36.4352 216.669 36.4352C200.424 36.4352 189.419 48.3833 189.419 64.8382C189.419 80.9787 200.528 91.6692 217.507 91.6692C227.883 91.6692 235.325 86.0095 238.155 79.3018C238.574 78.1489 238.783 77.1008 238.783 76.0527C238.783 74.1662 237.63 73.0133 236.163 73.0133ZM214.992 42.9333C222.014 42.9333 224.529 48.1737 224.529 54.9863C224.529 55.8247 224.425 57.0824 224.215 57.8161H203.882C204.301 49.117 208.703 42.9333 214.992 42.9333Z" fill="black"/>
<path d="M251.686 90.2019H266.464C269.713 90.2019 271.914 89.573 271.914 87.0576C271.914 83.8085 266.674 83.5989 266.674 79.4066V60.8555C266.674 53.2045 269.294 51.5276 272.333 51.5276C275.163 51.5276 276.107 52.366 278.832 52.366C283.548 52.366 286.797 49.641 286.797 44.191C286.797 39.5794 284.177 36.2256 278.622 36.2256C274.115 36.2256 268.665 39.4746 265.835 46.392H265.416V41.5708C265.311 37.9025 264.368 36.3304 260.7 36.3304C255.879 36.3304 245.188 40.2083 245.188 43.2477C245.188 45.4487 246.76 45.9727 249.59 47.6497C250.638 48.3833 251.581 49.641 251.477 52.2612V79.4066C251.477 83.5989 246.236 83.8085 246.236 87.0576C246.236 89.573 248.437 90.2019 251.686 90.2019Z" fill="black"/>
<path d="M303.636 30.4611C309.086 30.4611 313.174 27.1072 313.174 21.762C313.174 16.4168 309.086 13.0629 303.636 13.0629C298.291 13.0629 294.098 16.4168 294.098 21.762C294.098 27.1072 298.291 30.4611 303.636 30.4611ZM296.823 90.2019H311.601C314.85 90.2019 317.051 89.573 317.051 87.0576C317.051 83.8085 311.811 83.5989 311.811 79.4066V41.6756C311.706 38.4265 310.239 36.3304 305.732 36.3304C301.016 36.3304 290.325 39.3698 290.325 42.7237C290.325 44.8199 291.688 45.1343 294.098 46.916C295.671 48.0689 296.614 49.4314 296.614 52.5757V79.4066C296.614 83.5989 291.373 83.8085 291.373 87.0576C291.373 89.573 293.574 90.2019 296.823 90.2019Z" fill="black"/>
<path d="M347.408 91.774C354.64 91.774 360.404 88.3153 363.653 83.3893H364.073V84.7518C364.073 90.6211 364.806 91.774 368.37 91.774C374.554 91.774 383.881 88.2105 383.881 84.7518C383.881 82.7605 382.519 82.1316 380.108 81.1883C378.327 80.5595 377.488 79.3018 377.488 76.8912V17.2553C377.383 13.7966 375.706 11.91 371.933 11.91C367.112 11.91 356.002 15.1591 356.002 18.3033C356.002 19.9803 356.736 20.5043 359.461 22.1812C361.348 23.4389 362.396 24.9063 362.396 28.3649V39.8939C358.937 37.5881 354.85 36.2256 349.295 36.2256C333.364 36.2256 323.093 47.9641 323.093 64.5238C323.093 81.0835 333.678 91.774 347.408 91.774ZM352.649 82.6557C344.159 82.6557 338.604 69.869 338.709 58.3401C338.814 48.3833 342.692 43.2477 349.085 43.2477C356.212 43.2477 362.291 51.9468 362.291 62.9517V69.4498C362.291 77.1008 358.413 82.6557 352.649 82.6557Z" fill="black"/>
<path d="M401.689 30.4611C407.139 30.4611 411.227 27.1072 411.227 21.762C411.227 16.4168 407.139 13.0629 401.689 13.0629C396.344 13.0629 392.151 16.4168 392.151 21.762C392.151 27.1072 396.344 30.4611 401.689 30.4611ZM394.877 90.2019H409.654C412.904 90.2019 415.105 89.573 415.105 87.0576C415.105 83.8085 409.864 83.5989 409.864 79.4066V41.6756C409.759 38.4265 408.292 36.3304 403.785 36.3304C399.069 36.3304 388.378 39.3698 388.378 42.7237C388.378 44.8199 389.741 45.1343 392.151 46.916C393.724 48.0689 394.667 49.4314 394.667 52.5757V79.4066C394.667 83.5989 389.426 83.8085 389.426 87.0576C389.426 89.573 391.627 90.2019 394.877 90.2019Z" fill="black"/>
<path d="M449.654 91.774C466.423 91.774 479 80.1403 479 63.1613C479 46.1824 466.423 36.3304 450.597 36.3304C434.352 36.3304 421.146 47.8593 421.041 64.943C421.146 81.2931 433.199 91.774 449.654 91.774ZM452.483 84.7518C442.422 84.7518 437.286 69.0306 437.286 57.5017C437.286 48.8026 440.745 43.2477 447.557 43.2477C457.619 43.2477 462.755 58.969 462.755 70.2883C462.755 79.197 459.086 84.7518 452.483 84.7518Z" fill="black"/>
<circle cx="51.5" cy="51.5" r="51.5" fill="#3424EE"/>
<path fill-rule="evenodd" clip-rule="evenodd" d="M35.8424 100.577C33.2362 99.7459 30.7201 98.7133 28.3124 97.4972C28.3918 97.3533 28.4809 97.2126 28.5799 97.0762C34.1748 89.3712 37.9178 81.8855 40.5367 73.7733C29.7242 70.0798 23.4021 62.3796 19.8102 55.4004C17.7722 51.4406 16.5845 47.673 15.9037 44.8989C15.562 43.5068 15.3445 42.3508 15.2109 41.5273C15.144 41.1152 15.0979 40.7851 15.0676 40.5491C15.0525 40.431 15.0334 40.2667 15.0334 40.2667L15.0192 40.1334C14.8053 37.9505 16.4015 36.0074 18.5845 35.7935C20.7644 35.5798 22.705 37.1713 22.9235 39.3496L22.9266 39.3773C22.93 39.4078 22.9363 39.4622 22.9462 39.5388C22.9658 39.6923 22.9994 39.9347 23.0513 40.2547C23.1553 40.8955 23.3323 41.8426 23.6178 43.0057C24.1912 45.342 25.1883 48.4927 26.8727 51.7655C28.2619 54.4647 30.0986 57.2188 32.5431 59.6749C32.1421 57.7931 31.8687 55.8941 31.6824 54.0732C31.2469 49.8157 31.2607 45.6922 31.3779 42.6594C31.4369 41.1355 31.5226 39.8697 31.5944 38.9781C31.6303 38.532 31.6627 38.1786 31.6867 37.9324L31.7283 37.5287C31.973 35.349 33.9385 33.7804 36.1182 34.0252C38.2973 34.2699 39.8655 36.2342 39.6219 38.4131L39.6217 38.4151L39.6208 38.4235L39.6153 38.4751C39.6102 38.5236 39.6024 38.5999 39.5924 38.7024C39.5724 38.9074 39.5439 39.2164 39.5118 39.6153C39.4476 40.4137 39.3691 41.5683 39.3151 42.9663C39.2064 45.7769 39.1993 49.502 39.5842 53.2649C39.9747 57.0816 40.7421 60.6544 42.0234 63.3204C42.3115 63.9197 42.6113 64.4468 42.9227 64.9076C43.9656 60.193 44.7515 55.2042 45.3978 49.8046C45.6584 47.6268 47.6353 46.0726 49.8131 46.3332C51.991 46.5939 53.5452 48.5707 53.2845 50.7486C52.6157 56.3369 51.7928 61.5734 50.6881 66.5769C51.1859 66.2637 51.7011 65.8759 52.2363 65.4067C54.4606 63.4569 56.5678 60.4712 58.4237 57.1134C60.2536 53.8029 61.708 50.3735 62.7104 47.7454C63.2089 46.4383 63.5896 45.3454 63.8436 44.5857C63.9705 44.2062 64.0655 43.9108 64.1276 43.7144C64.1586 43.6162 64.1813 43.5429 64.1956 43.4963L64.2108 43.4467L64.2132 43.4386L64.2136 43.4373C64.8439 41.337 67.0571 40.1449 69.1578 40.7744C71.2588 41.4041 72.4516 43.6179 71.8219 45.7189L71.7878 45.8309C71.7678 45.8961 71.7391 45.9887 71.7018 46.1066C71.6273 46.3425 71.5186 46.6803 71.3766 47.1048C71.093 47.953 70.6754 49.1511 70.132 50.576C69.0504 53.4118 67.4459 57.2104 65.3755 60.956C64.367 62.7805 63.2149 64.6537 61.9192 66.4229C65.6837 65.1114 68.8808 63.0791 71.5238 60.8868C74.3568 58.5368 76.5097 56.0295 77.9535 54.1053C78.6722 53.1473 79.2064 52.3456 79.5535 51.7969C79.7268 51.5228 79.8527 51.313 79.9309 51.1796C79.9701 51.1129 79.9972 51.0654 80.0123 51.0387L80.0216 51.0224L80.0232 51.0196L80.0244 51.0173L80.0258 51.0148C81.0809 49.0964 83.4905 48.3934 85.4121 49.4449C87.3363 50.4978 88.0426 52.9112 86.9896 54.8354L86.9243 54.9524C86.8897 55.0135 86.8423 55.0962 86.7821 55.1988C86.6617 55.404 86.4898 55.6896 86.2667 56.0425C85.8207 56.7476 85.1673 57.7257 84.307 58.8723C82.5928 61.157 80.0226 64.1571 76.5949 67.0003C70.2009 72.3041 60.6768 77.1516 48.3014 75.5682C45.5848 84.1943 41.6852 92.2952 35.8424 100.577Z" fill="white"/>
</svg>
