<svg width="103" height="103" viewBox="0 0 103 103" fill="none" xmlns="http://www.w3.org/2000/svg">
<circle cx="51.5" cy="51.5" r="51.5" fill="#3424EE"/>
<path fill-rule="evenodd" clip-rule="evenodd" d="M35.8424 100.577C33.2362 99.7459 30.7201 98.7133 28.3124 97.4972C28.3918 97.3533 28.4809 97.2126 28.5799 97.0762C34.1748 89.3712 37.9178 81.8855 40.5367 73.7733C29.7242 70.0798 23.4021 62.3796 19.8102 55.4004C17.7722 51.4406 16.5845 47.673 15.9037 44.8989C15.562 43.5068 15.3445 42.3508 15.2109 41.5273C15.144 41.1152 15.0979 40.7851 15.0676 40.5491C15.0525 40.431 15.0334 40.2667 15.0334 40.2667L15.0192 40.1334C14.8053 37.9505 16.4015 36.0074 18.5845 35.7935C20.7644 35.5798 22.705 37.1713 22.9235 39.3496L22.9266 39.3773C22.93 39.4078 22.9363 39.4622 22.9462 39.5388C22.9658 39.6923 22.9994 39.9347 23.0513 40.2547C23.1553 40.8955 23.3323 41.8426 23.6178 43.0057C24.1912 45.342 25.1883 48.4927 26.8727 51.7655C28.2619 54.4647 30.0986 57.2188 32.5431 59.6749C32.1421 57.7931 31.8687 55.8941 31.6824 54.0732C31.2469 49.8157 31.2607 45.6922 31.3779 42.6594C31.4369 41.1355 31.5226 39.8697 31.5944 38.9781C31.6303 38.532 31.6627 38.1786 31.6867 37.9324L31.7283 37.5287C31.973 35.349 33.9385 33.7804 36.1182 34.0252C38.2973 34.2699 39.8655 36.2342 39.6219 38.4131L39.6217 38.4151L39.6208 38.4235L39.6153 38.4751C39.6102 38.5236 39.6024 38.5999 39.5924 38.7024C39.5724 38.9074 39.5439 39.2164 39.5118 39.6153C39.4476 40.4137 39.3691 41.5683 39.3151 42.9663C39.2064 45.7769 39.1993 49.502 39.5842 53.2649C39.9747 57.0816 40.7421 60.6544 42.0234 63.3204C42.3115 63.9197 42.6113 64.4468 42.9227 64.9076C43.9656 60.193 44.7515 55.2042 45.3978 49.8046C45.6584 47.6268 47.6353 46.0726 49.8131 46.3332C51.991 46.5939 53.5452 48.5707 53.2845 50.7486C52.6157 56.3369 51.7928 61.5734 50.6881 66.5769C51.1859 66.2637 51.7011 65.8759 52.2363 65.4067C54.4606 63.4569 56.5678 60.4712 58.4237 57.1134C60.2536 53.8029 61.708 50.3735 62.7104 47.7454C63.2089 46.4383 63.5896 45.3454 63.8436 44.5857C63.9705 44.2062 64.0655 43.9108 64.1276 43.7144C64.1586 43.6162 64.1813 43.5429 64.1956 43.4963L64.2108 43.4467L64.2132 43.4386L64.2136 43.4373C64.8439 41.337 67.0571 40.1449 69.1578 40.7744C71.2588 41.4041 72.4516 43.6179 71.8219 45.7189L71.7878 45.8309C71.7678 45.8961 71.7391 45.9887 71.7018 46.1066C71.6273 46.3425 71.5186 46.6803 71.3766 47.1048C71.093 47.953 70.6754 49.1511 70.132 50.576C69.0504 53.4118 67.4459 57.2104 65.3755 60.956C64.367 62.7805 63.2149 64.6537 61.9192 66.4229C65.6837 65.1114 68.8808 63.0791 71.5238 60.8868C74.3568 58.5368 76.5097 56.0295 77.9535 54.1053C78.6722 53.1473 79.2064 52.3456 79.5535 51.7969C79.7268 51.5228 79.8527 51.313 79.9309 51.1796C79.9701 51.1129 79.9972 51.0654 80.0123 51.0387L80.0216 51.0224L80.0232 51.0196L80.0244 51.0173L80.0258 51.0148C81.0809 49.0964 83.4905 48.3934 85.4121 49.4449C87.3363 50.4978 88.0426 52.9112 86.9896 54.8354L86.9243 54.9524C86.8897 55.0135 86.8423 55.0962 86.7821 55.1988C86.6617 55.404 86.4898 55.6896 86.2667 56.0425C85.8207 56.7476 85.1673 57.7257 84.307 58.8723C82.5928 61.157 80.0226 64.1571 76.5949 67.0003C70.2009 72.3041 60.6768 77.1516 48.3014 75.5682C45.5848 84.1943 41.6852 92.2952 35.8424 100.577Z" fill="white"/>
</svg>
