<svg width="103" height="103" viewBox="0 0 103 103" fill="none" xmlns="http://www.w3.org/2000/svg">
<path fill-rule="evenodd" clip-rule="evenodd" d="M51.4803 102.961C79.9124 102.961 102.961 79.9124 102.961 51.4803C102.961 23.0485 79.9124 0 51.4803 0C23.0485 0 0 23.0485 0 51.4803C0 71.9388 11.9339 89.6103 29.2202 97.9124C29.3073 97.7473 29.4072 97.5869 29.52 97.4312C35.1127 89.7294 38.8543 82.2467 41.4723 74.1375C30.6638 70.4454 24.3441 62.7481 20.7535 55.7716C18.7163 51.8133 17.529 48.0471 16.8485 45.2742C16.507 43.8826 16.2896 42.727 16.156 41.9038C16.1114 41.6291 16.0482 41.171 15.9663 40.5293L15.9652 40.5187C15.9648 40.5144 15.9645 40.5117 15.9644 40.5105C15.7505 38.3283 17.3462 36.386 19.5283 36.1721C21.7073 35.9586 23.6473 37.5495 23.8656 39.7269C23.9163 40.1168 23.9588 40.4185 23.9934 40.6317C24.0974 41.2722 24.2743 42.219 24.5597 43.3816C25.1329 45.717 26.1296 48.8666 27.8133 52.1381C29.2021 54.8363 31.038 57.5892 33.4815 60.0443C33.0806 58.1633 32.8073 56.2651 32.6211 54.4449C32.1858 50.189 32.1996 46.0671 32.3168 43.0354C32.3757 41.5122 32.4614 40.2468 32.5331 39.3556C32.5571 39.0583 32.6003 38.5874 32.663 37.9428L32.6656 37.9192L32.6667 37.9088C32.9116 35.7278 34.8763 34.1598 37.0552 34.4045C39.2334 34.6492 40.8011 36.6127 40.5576 38.7908L40.5574 38.7928L40.5565 38.8012C40.5053 39.3295 40.469 39.7266 40.4475 39.9925C40.3833 40.7907 40.3049 41.9448 40.2508 43.3422C40.1422 46.1518 40.1352 49.8754 40.5199 53.6369C40.9102 57.4521 41.6773 61.0236 42.9581 63.6885C43.2462 64.2878 43.5459 64.8147 43.8572 65.2754C44.8997 60.5625 45.6854 55.5755 46.3314 50.178C46.592 48.0009 48.5681 46.4473 50.7451 46.7079C52.9222 46.9685 54.4757 48.9445 54.2152 51.1216C53.5466 56.7076 52.7241 61.9422 51.6198 66.9437C52.1173 66.6306 52.6322 66.243 53.1672 65.774C55.3906 63.825 57.497 60.8404 59.3522 57.4839C61.1814 54.1748 62.6353 50.7467 63.6372 48.1196C64.1356 46.813 64.5161 45.7205 64.77 44.961C64.8546 44.7081 64.977 44.3286 65.1371 43.8225L65.1396 43.8144C65.7699 41.7136 67.9823 40.5219 70.0821 41.1512C72.1824 41.7806 73.3748 43.9935 72.7453 46.0938C72.7452 46.0945 72.745 46.0951 72.7448 46.0958L72.7417 46.1059C72.542 46.7386 72.3948 47.1963 72.3002 47.4791C72.0167 48.3271 71.5992 49.5247 71.056 50.9491C69.9749 53.7837 68.3709 57.5809 66.3013 61.3251C65.2932 63.1489 64.1416 65.0214 62.8463 66.79C66.6094 65.4789 69.8054 63.4474 72.4474 61.2559C75.2793 58.9068 77.4314 56.4005 78.8746 54.477C79.5932 53.5194 80.1268 52.7179 80.4737 52.1695C80.5891 51.9868 80.7453 51.7288 80.9422 51.3953L80.9462 51.3877C82.0006 49.47 84.4096 48.7672 86.3303 49.8184C88.2542 50.8709 88.96 53.2834 87.9072 55.2068C87.5742 55.7761 87.3334 56.1783 87.1846 56.4134C86.7392 57.1182 86.0857 58.096 85.2258 59.2422C83.5124 61.5261 80.943 64.5249 77.5166 67.3671C71.125 72.6688 61.6047 77.5145 49.2339 75.9316C46.5274 84.5263 42.6461 92.5989 36.8377 100.849C41.4788 102.223 46.3934 102.961 51.4803 102.961Z" fill="#3424EE"/>
</svg>
