<svg width="479" height="103" viewBox="0 0 479 103" fill="none" xmlns="http://www.w3.org/2000/svg">
<path d="M152.716 65.5719C170.009 65.5719 185.731 59.5978 185.731 40.9419C185.731 26.7928 172.63 18.9322 154.393 18.9322H132.278C128.715 18.9322 126.409 19.561 126.409 22.2861C126.409 25.7447 131.859 25.9544 131.859 30.3563V78.7777C131.859 83.1797 126.409 83.2845 126.409 86.848C126.409 89.573 128.82 90.2019 132.278 90.2019H147.056C150.515 90.2019 152.926 89.573 152.926 86.848C152.926 83.2845 147.476 83.1797 147.476 78.7777V65.5719H152.716ZM150.934 26.2688H152.716C162.044 26.2688 168.647 33.5005 168.647 43.5621C168.647 54.567 160.786 58.3401 152.402 58.3401H147.476V30.5659C147.476 27.9457 148.209 26.2688 150.934 26.2688Z" fill="black"/>
<path d="M236.163 73.0133C235.115 73.0133 234.277 73.4325 233.229 74.4806C229.455 78.3585 226.102 80.1403 221.176 80.1403C211.848 80.1403 205.559 73.7469 204.197 63.5805H231.447C236.582 63.5805 238.888 61.3796 238.888 56.244C238.888 45.4487 231.028 36.4352 216.669 36.4352C200.424 36.4352 189.419 48.3833 189.419 64.8382C189.419 80.9787 200.528 91.6692 217.507 91.6692C227.883 91.6692 235.325 86.0095 238.155 79.3018C238.574 78.1489 238.783 77.1008 238.783 76.0527C238.783 74.1662 237.631 73.0133 236.163 73.0133ZM214.992 42.9333C222.014 42.9333 224.529 48.1737 224.529 54.9863C224.529 55.8247 224.425 57.0824 224.215 57.8161H203.882C204.301 49.117 208.703 42.9333 214.992 42.9333Z" fill="black"/>
<path d="M251.686 90.2019H266.464C269.713 90.2019 271.914 89.573 271.914 87.0576C271.914 83.8085 266.674 83.5989 266.674 79.4066V60.8555C266.674 53.2045 269.294 51.5276 272.334 51.5276C275.163 51.5276 276.107 52.366 278.832 52.366C283.548 52.366 286.797 49.641 286.797 44.191C286.797 39.5794 284.177 36.2256 278.622 36.2256C274.115 36.2256 268.665 39.4746 265.835 46.392H265.416V41.5708C265.311 37.9025 264.368 36.3304 260.7 36.3304C255.879 36.3304 245.188 40.2083 245.188 43.2477C245.188 45.4487 246.76 45.9727 249.59 47.6497C250.638 48.3833 251.581 49.641 251.477 52.2612V79.4066C251.477 83.5989 246.236 83.8085 246.236 87.0576C246.236 89.573 248.437 90.2019 251.686 90.2019Z" fill="black"/>
<path d="M303.636 30.4611C309.086 30.4611 313.174 27.1072 313.174 21.762C313.174 16.4168 309.086 13.0629 303.636 13.0629C298.291 13.0629 294.098 16.4168 294.098 21.762C294.098 27.1072 298.291 30.4611 303.636 30.4611ZM296.823 90.2019H311.601C314.85 90.2019 317.051 89.573 317.051 87.0576C317.051 83.8085 311.811 83.5989 311.811 79.4066V41.6756C311.706 38.4265 310.239 36.3304 305.732 36.3304C301.016 36.3304 290.325 39.3698 290.325 42.7237C290.325 44.8198 291.688 45.1343 294.098 46.916C295.671 48.0689 296.614 49.4314 296.614 52.5757V79.4066C296.614 83.5989 291.373 83.8085 291.373 87.0576C291.373 89.573 293.574 90.2019 296.823 90.2019Z" fill="black"/>
<path d="M347.408 91.774C354.64 91.774 360.404 88.3153 363.654 83.3893H364.073V84.7518C364.073 90.6211 364.806 91.774 368.37 91.774C374.554 91.774 383.881 88.2105 383.881 84.7518C383.881 82.7605 382.519 82.1316 380.108 81.1883C378.327 80.5595 377.488 79.3018 377.488 76.8912V17.2553C377.383 13.7966 375.706 11.91 371.933 11.91C367.112 11.91 356.002 15.1591 356.002 18.3033C356.002 19.9803 356.736 20.5043 359.461 22.1812C361.348 23.4389 362.396 24.9063 362.396 28.3649V39.8939C358.937 37.5881 354.85 36.2256 349.295 36.2256C333.364 36.2256 323.093 47.9641 323.093 64.5238C323.093 81.0835 333.678 91.774 347.408 91.774ZM352.649 82.6557C344.159 82.6557 338.604 69.869 338.709 58.3401C338.814 48.3833 342.692 43.2477 349.085 43.2477C356.212 43.2477 362.291 51.9468 362.291 62.9517V69.4498C362.291 77.1008 358.413 82.6557 352.649 82.6557Z" fill="black"/>
<path d="M401.689 30.4611C407.139 30.4611 411.227 27.1072 411.227 21.762C411.227 16.4168 407.139 13.0629 401.689 13.0629C396.344 13.0629 392.152 16.4168 392.152 21.762C392.152 27.1072 396.344 30.4611 401.689 30.4611ZM394.877 90.2019H409.655C412.904 90.2019 415.105 89.573 415.105 87.0576C415.105 83.8085 409.864 83.5989 409.864 79.4066V41.6756C409.759 38.4265 408.292 36.3304 403.785 36.3304C399.069 36.3304 388.378 39.3698 388.378 42.7237C388.378 44.8198 389.741 45.1343 392.152 46.916C393.724 48.0689 394.667 49.4314 394.667 52.5757V79.4066C394.667 83.5989 389.427 83.8085 389.427 87.0576C389.427 89.573 391.627 90.2019 394.877 90.2019Z" fill="black"/>
<path d="M449.654 91.774C466.423 91.774 479 80.1403 479 63.1613C479 46.1824 466.423 36.3304 450.597 36.3304C434.352 36.3304 421.146 47.8593 421.041 64.943C421.146 81.2931 433.199 91.774 449.654 91.774ZM452.483 84.7518C442.422 84.7518 437.286 69.0306 437.286 57.5017C437.286 48.8026 440.745 43.2477 447.557 43.2477C457.619 43.2477 462.755 58.969 462.755 70.2883C462.755 79.197 459.086 84.7518 452.483 84.7518Z" fill="black"/>
<path fill-rule="evenodd" clip-rule="evenodd" d="M51.4803 102.961C79.9124 102.961 102.961 79.9124 102.961 51.4803C102.961 23.0485 79.9124 0 51.4803 0C23.0485 0 0 23.0485 0 51.4803C0 71.9388 11.9339 89.6103 29.2202 97.9124C29.3073 97.7473 29.4072 97.5869 29.52 97.4312C35.1127 89.7294 38.8543 82.2467 41.4723 74.1375C30.6638 70.4454 24.3441 62.7481 20.7535 55.7716C18.7163 51.8133 17.529 48.0471 16.8485 45.2742C16.507 43.8826 16.2896 42.727 16.156 41.9038C16.1114 41.6291 16.0482 41.171 15.9663 40.5293L15.9652 40.5187C15.9648 40.5144 15.9645 40.5117 15.9644 40.5105C15.7505 38.3283 17.3462 36.386 19.5283 36.1721C21.7073 35.9586 23.6473 37.5495 23.8656 39.7269C23.9163 40.1168 23.9588 40.4185 23.9934 40.6317C24.0974 41.2722 24.2743 42.219 24.5597 43.3816C25.1329 45.717 26.1296 48.8666 27.8133 52.1381C29.2021 54.8363 31.038 57.5892 33.4815 60.0443C33.0806 58.1633 32.8073 56.2651 32.6211 54.4449C32.1858 50.189 32.1996 46.0671 32.3168 43.0354C32.3757 41.5122 32.4614 40.2468 32.5331 39.3556C32.5571 39.0583 32.6003 38.5874 32.663 37.9428L32.6656 37.9192L32.6667 37.9088C32.9116 35.7278 34.8763 34.1598 37.0552 34.4045C39.2334 34.6492 40.8011 36.6127 40.5576 38.7908L40.5574 38.7928L40.5565 38.8012C40.5053 39.3295 40.469 39.7266 40.4475 39.9925C40.3833 40.7907 40.3049 41.9448 40.2508 43.3422C40.1422 46.1518 40.1352 49.8754 40.5199 53.6369C40.9102 57.4521 41.6773 61.0236 42.9581 63.6885C43.2462 64.2878 43.5459 64.8147 43.8572 65.2754C44.8997 60.5625 45.6854 55.5755 46.3314 50.178C46.592 48.0009 48.5681 46.4473 50.7451 46.7079C52.9222 46.9685 54.4757 48.9445 54.2152 51.1216C53.5466 56.7076 52.7241 61.9422 51.6198 66.9437C52.1173 66.6306 52.6322 66.243 53.1672 65.774C55.3906 63.825 57.497 60.8404 59.3522 57.4839C61.1814 54.1748 62.6353 50.7467 63.6372 48.1196C64.1356 46.813 64.5161 45.7205 64.77 44.961C64.8546 44.7081 64.977 44.3286 65.1371 43.8225L65.1396 43.8144C65.7699 41.7136 67.9823 40.5219 70.0821 41.1512C72.1824 41.7806 73.3748 43.9935 72.7453 46.0938C72.7452 46.0945 72.745 46.0951 72.7448 46.0958L72.7417 46.1059C72.542 46.7386 72.3948 47.1963 72.3002 47.4791C72.0167 48.3271 71.5992 49.5247 71.056 50.9491C69.9749 53.7837 68.3709 57.5809 66.3013 61.3251C65.2932 63.1489 64.1416 65.0214 62.8463 66.79C66.6094 65.4789 69.8054 63.4474 72.4474 61.2559C75.2793 58.9068 77.4314 56.4005 78.8746 54.477C79.5932 53.5194 80.1268 52.7179 80.4737 52.1695C80.5891 51.9868 80.7453 51.7288 80.9422 51.3953L80.9462 51.3877C82.0006 49.47 84.4096 48.7672 86.3303 49.8184C88.2542 50.8709 88.96 53.2834 87.9072 55.2068C87.5742 55.7761 87.3334 56.1783 87.1846 56.4134C86.7392 57.1182 86.0857 58.096 85.2258 59.2422C83.5124 61.5261 80.943 64.5249 77.5166 67.3671C71.125 72.6688 61.6047 77.5145 49.2339 75.9316C46.5274 84.5263 42.6461 92.5989 36.8377 100.849C41.4788 102.223 46.3934 102.961 51.4803 102.961Z" fill="#3424EE"/>
</svg>
