<svg width="134" height="20" viewBox="0 0 134 20" fill="none" xmlns="http://www.w3.org/2000/svg">
<path d="M6.43496 13.1556C10.6651 13.1556 14.5107 11.691 14.5107 7.11739C14.5107 3.64863 11.306 1.72154 6.84516 1.72154H1.43569C0.564021 1.72154 0 1.8757 0 2.54376C0 3.39168 1.33314 3.44307 1.33314 4.52224V16.3931C1.33314 17.4723 0 17.498 0 18.3716C0 19.0397 0.589658 19.1938 1.43569 19.1938H5.05055C5.89658 19.1938 6.48624 19.0397 6.48624 18.3716C6.48624 17.498 5.1531 17.4723 5.1531 16.3931V13.1556H6.43496ZM5.99913 3.52016H6.43496C8.71668 3.52016 10.3318 5.29308 10.3318 7.75976C10.3318 10.4577 8.40903 11.3827 6.35805 11.3827H5.1531V4.57363C5.1531 3.93127 5.33256 3.52016 5.99913 3.52016Z" fill="black"/>
<path d="M26.8471 14.9799C26.5907 14.9799 26.3856 15.0827 26.1292 15.3397C25.2063 16.2904 24.3859 16.7272 23.1809 16.7272C20.8992 16.7272 19.361 15.1598 19.0277 12.6674H25.6934C26.9496 12.6674 27.5136 12.1278 27.5136 10.8688C27.5136 8.22226 25.5908 6.01253 22.0785 6.01253C18.1047 6.01253 15.4128 8.94171 15.4128 12.9758C15.4128 16.9327 18.1304 19.5536 22.2836 19.5536C24.8217 19.5536 26.642 18.1661 27.3342 16.5216C27.4367 16.239 27.488 15.982 27.488 15.7251C27.488 15.2626 27.206 14.9799 26.8471 14.9799ZM21.6683 7.60559C23.386 7.60559 24.0013 8.89032 24.0013 10.5605C24.0013 10.766 23.9757 11.0744 23.9244 11.2542H18.9508C19.0533 9.12157 20.1301 7.60559 21.6683 7.60559Z" fill="black"/>
<path d="M30.6442 19.1938H34.259C35.0538 19.1938 35.5922 19.0397 35.5922 18.423C35.5922 17.6265 34.3103 17.5751 34.3103 16.5473V11.9994C34.3103 10.1237 34.9512 9.71255 35.6947 9.71255C36.3869 9.71255 36.6177 9.9181 37.2842 9.9181C38.4379 9.9181 39.2327 9.25004 39.2327 7.91393C39.2327 6.78337 38.5917 5.96114 37.233 5.96114C36.1306 5.96114 34.7974 6.75767 34.1052 8.45351H34.0027V7.27156C33.977 6.37225 33.7463 5.98683 32.849 5.98683C31.6697 5.98683 29.0547 6.93753 29.0547 7.68268C29.0547 8.22226 29.4392 8.35073 30.1314 8.76185C30.3878 8.94171 30.6185 9.25004 30.5929 9.89241V16.5473C30.5929 17.5751 29.311 17.6265 29.311 18.423C29.311 19.0397 29.8494 19.1938 30.6442 19.1938Z" fill="black"/>
<path d="M43.3517 4.54794C44.6848 4.54794 45.6847 3.72571 45.6847 2.41529C45.6847 1.10487 44.6848 0.282639 43.3517 0.282639C42.0442 0.282639 41.0187 1.10487 41.0187 2.41529C41.0187 3.72571 42.0442 4.54794 43.3517 4.54794ZM41.6852 19.1938H45.3001C46.0949 19.1938 46.6332 19.0397 46.6332 18.423C46.6332 17.6265 45.3514 17.5751 45.3514 16.5473V7.29726C45.3257 6.50073 44.9668 5.98683 43.8644 5.98683C42.7107 5.98683 40.0957 6.73198 40.0957 7.5542C40.0957 8.06809 40.429 8.14518 41.0187 8.58199C41.4032 8.86463 41.634 9.19865 41.634 9.96949V16.5473C41.634 17.5751 40.3521 17.6265 40.3521 18.423C40.3521 19.0397 40.8905 19.1938 41.6852 19.1938Z" fill="black"/>
<path d="M54.0588 19.5793C55.8278 19.5793 57.2379 18.7313 58.0326 17.5237H58.1352V17.8577C58.1352 19.2966 58.3146 19.5793 59.1863 19.5793C60.6989 19.5793 62.9806 18.7056 62.9806 17.8577C62.9806 17.3695 62.6473 17.2154 62.0577 16.9841C61.6219 16.8299 61.4167 16.5216 61.4167 15.9306V1.31042C61.3911 0.462502 60.9809 0 60.058 0C58.8787 0 56.1611 0.796532 56.1611 1.56737C56.1611 1.97848 56.3406 2.10695 57.0071 2.51807C57.4686 2.8264 57.725 3.18613 57.725 4.03405V6.86045C56.8789 6.29517 55.8791 5.96114 54.5203 5.96114C50.6234 5.96114 48.111 8.83893 48.111 12.8987C48.111 16.9584 50.7004 19.5793 54.0588 19.5793ZM55.3407 17.3438C53.2641 17.3438 51.9053 14.2091 51.9309 11.3827C51.9566 8.94171 52.9052 7.68268 54.469 7.68268C56.2124 7.68268 57.6993 9.81532 57.6993 12.5133V14.1063C57.6993 15.982 56.7508 17.3438 55.3407 17.3438Z" fill="black"/>
<path d="M67.3366 4.54794C68.6697 4.54794 69.6696 3.72571 69.6696 2.41529C69.6696 1.10487 68.6697 0.282639 67.3366 0.282639C66.0291 0.282639 65.0036 1.10487 65.0036 2.41529C65.0036 3.72571 66.0291 4.54794 67.3366 4.54794ZM65.6701 19.1938H69.285C70.0798 19.1938 70.6181 19.0397 70.6181 18.423C70.6181 17.6265 69.3363 17.5751 69.3363 16.5473V7.29726C69.3106 6.50073 68.9517 5.98683 67.8493 5.98683C66.6956 5.98683 64.0806 6.73198 64.0806 7.5542C64.0806 8.06809 64.4139 8.14518 65.0036 8.58199C65.3881 8.86463 65.6189 9.19865 65.6189 9.96949V16.5473C65.6189 17.5751 64.337 17.6265 64.337 18.423C64.337 19.0397 64.8754 19.1938 65.6701 19.1938Z" fill="black"/>
<path d="M79.0692 19.5793C83.1712 19.5793 86.2477 16.7272 86.2477 12.5646C86.2477 8.40212 83.1712 5.98683 79.3 5.98683C75.3262 5.98683 72.0959 8.81324 72.0702 13.0014C72.0959 17.0098 75.0442 19.5793 79.0692 19.5793ZM79.7614 17.8577C77.3003 17.8577 76.044 14.0035 76.044 11.1771C76.044 9.04449 76.8901 7.68268 78.5565 7.68268C81.0177 7.68268 82.2739 11.5369 82.2739 14.3119C82.2739 16.4959 81.3766 17.8577 79.7614 17.8577Z" fill="black"/>
<path d="M124.958 14.0291C124.328 14.0291 123.772 13.9163 123.289 13.6906C122.807 13.465 122.429 13.1421 122.157 12.722C121.885 12.3018 121.749 11.7961 121.749 11.2048V10.878H123.266V11.2048C123.266 11.695 123.418 12.0645 123.721 12.3135C124.024 12.5547 124.437 12.6753 124.958 12.6753C125.487 12.6753 125.88 12.5703 126.137 12.3602C126.401 12.1501 126.534 11.8817 126.534 11.5549C126.534 11.3293 126.467 11.1465 126.335 11.0064C126.211 10.8664 126.024 10.7536 125.775 10.668C125.534 10.5746 125.238 10.489 124.888 10.4112L124.62 10.3529C124.059 10.2284 123.577 10.0728 123.172 9.88605C122.776 9.69154 122.468 9.43868 122.251 9.12747C122.04 8.81626 121.935 8.41168 121.935 7.91374C121.935 7.4158 122.052 6.99177 122.286 6.64165C122.527 6.28376 122.861 6.01145 123.289 5.82472C123.725 5.63021 124.235 5.53296 124.818 5.53296C125.402 5.53296 125.919 5.6341 126.37 5.83639C126.829 6.0309 127.187 6.32655 127.444 6.72335C127.708 7.11236 127.841 7.60252 127.841 8.19383V8.54394H126.324V8.19383C126.324 7.88262 126.261 7.63365 126.137 7.44692C126.02 7.25241 125.849 7.11236 125.623 7.02678C125.398 6.93342 125.129 6.88673 124.818 6.88673C124.351 6.88673 124.005 6.97621 123.779 7.15516C123.562 7.32632 123.453 7.56362 123.453 7.86706C123.453 8.06934 123.503 8.24051 123.604 8.38056C123.713 8.5206 123.873 8.63731 124.083 8.73067C124.293 8.82404 124.561 8.90573 124.888 8.97575L125.156 9.03411C125.74 9.15859 126.246 9.31809 126.674 9.5126C127.109 9.7071 127.448 9.96386 127.689 10.2828C127.93 10.6018 128.051 11.0103 128.051 11.5083C128.051 12.0062 127.922 12.4458 127.666 12.827C127.417 13.2005 127.059 13.4961 126.592 13.714C126.133 13.924 125.588 14.0291 124.958 14.0291Z" fill="url(#paint0_linear_167_76)"/>
<path d="M117.716 14.0291C116.704 14.0291 115.903 13.749 115.312 13.1888C114.72 12.6208 114.425 11.8117 114.425 10.7613V8.8007C114.425 7.75035 114.72 6.94509 115.312 6.3849C115.903 5.81694 116.704 5.53296 117.716 5.53296C118.72 5.53296 119.494 5.80916 120.038 6.36156C120.591 6.90618 120.867 7.65699 120.867 8.61397V8.68399H119.35V8.56729C119.35 8.08491 119.214 7.68811 118.941 7.37689C118.677 7.06568 118.268 6.91007 117.716 6.91007C117.171 6.91007 116.743 7.07735 116.432 7.41191C116.121 7.74646 115.965 8.20161 115.965 8.77735V10.7847C115.965 11.3526 116.121 11.8078 116.432 12.1501C116.743 12.4847 117.171 12.652 117.716 12.652C118.268 12.652 118.677 12.4964 118.941 12.1851C119.214 11.8661 119.35 11.4694 119.35 10.9948V10.7847H120.867V10.9481C120.867 11.9051 120.591 12.6597 120.038 13.2121C119.494 13.7568 118.72 14.0291 117.716 14.0291Z" fill="url(#paint1_linear_167_76)"/>
<path d="M109.899 14.0291C108.872 14.0291 108.055 13.749 107.448 13.1888C106.842 12.6208 106.538 11.8117 106.538 10.7613V8.8007C106.538 7.75035 106.842 6.94509 107.448 6.3849C108.055 5.81694 108.872 5.53296 109.899 5.53296C110.926 5.53296 111.743 5.81694 112.35 6.3849C112.957 6.94509 113.26 7.75035 113.26 8.8007V10.7613C113.26 11.8117 112.957 12.6208 112.35 13.1888C111.743 13.749 110.926 14.0291 109.899 14.0291ZM109.899 12.652C110.475 12.652 110.922 12.4847 111.241 12.1501C111.56 11.8156 111.72 11.3682 111.72 10.808V8.75401C111.72 8.19383 111.56 7.74646 111.241 7.41191C110.922 7.07735 110.475 6.91007 109.899 6.91007C109.331 6.91007 108.884 7.07735 108.557 7.41191C108.238 7.74646 108.079 8.19383 108.079 8.75401V10.808C108.079 11.3682 108.238 11.8156 108.557 12.1501C108.884 12.4847 109.331 12.652 109.899 12.652Z" fill="url(#paint2_linear_167_76)"/>
<path d="M98.7187 13.8657V12.5119H99.7924V7.05012H98.7187V5.69634H102.08C103.177 5.69634 104.009 5.97643 104.577 6.53662C105.153 7.08902 105.441 7.91374 105.441 9.01077V10.5513C105.441 11.6483 105.153 12.4769 104.577 13.0371C104.009 13.5895 103.177 13.8657 102.08 13.8657H98.7187ZM101.333 12.4652H102.103C102.726 12.4652 103.181 12.3018 103.469 11.9751C103.756 11.6483 103.9 11.1893 103.9 10.598V8.96408C103.9 8.365 103.756 7.90596 103.469 7.58696C103.181 7.26019 102.726 7.0968 102.103 7.0968H101.333V12.4652Z" fill="url(#paint3_linear_167_76)"/>
<path d="M93.3809 15.8032V3.77621C93.3809 1.83575 94.9539 0.262695 96.8944 0.262695V2.01945C95.9241 2.01945 95.1376 2.80598 95.1376 3.77621V15.8032C95.1376 16.7735 95.9241 17.56 96.8944 17.56H129.867C130.838 17.56 131.624 16.7735 131.624 15.8032V3.77621C131.624 2.80598 130.838 2.01945 129.867 2.01945V0.262695C131.808 0.262695 133.381 1.83575 133.381 3.77621V15.8032C133.381 17.7437 131.808 19.3168 129.867 19.3168H96.8944C94.9539 19.3168 93.3809 17.7437 93.3809 15.8032ZM129.867 0.262695V2.01945H96.8944V0.262695H129.867Z" fill="url(#paint4_linear_167_76)"/>
<defs>
<linearGradient id="paint0_linear_167_76" x1="90.3672" y1="0.290038" x2="135.867" y2="20.79" gradientUnits="userSpaceOnUse">
<stop stop-color="#3424EE"/>
<stop offset="1" stop-color="#7367FF"/>
</linearGradient>
<linearGradient id="paint1_linear_167_76" x1="90.3672" y1="0.290038" x2="135.867" y2="20.79" gradientUnits="userSpaceOnUse">
<stop stop-color="#3424EE"/>
<stop offset="1" stop-color="#7367FF"/>
</linearGradient>
<linearGradient id="paint2_linear_167_76" x1="90.3672" y1="0.290038" x2="135.867" y2="20.79" gradientUnits="userSpaceOnUse">
<stop stop-color="#3424EE"/>
<stop offset="1" stop-color="#7367FF"/>
</linearGradient>
<linearGradient id="paint3_linear_167_76" x1="90.3672" y1="0.290038" x2="135.867" y2="20.79" gradientUnits="userSpaceOnUse">
<stop stop-color="#3424EE"/>
<stop offset="1" stop-color="#7367FF"/>
</linearGradient>
<linearGradient id="paint4_linear_167_76" x1="90.3672" y1="0.290038" x2="135.867" y2="20.79" gradientUnits="userSpaceOnUse">
<stop stop-color="#3424EE"/>
<stop offset="1" stop-color="#7367FF"/>
</linearGradient>
</defs>
</svg>
