<svg width="299" height="71" viewBox="0 0 299 71" fill="none" xmlns="http://www.w3.org/2000/svg">
<path d="M102.14 43.3764C112.574 43.3764 122.059 39.772 122.059 28.5161C122.059 19.9794 114.155 15.2368 103.152 15.2368H89.809C87.659 15.2368 86.2678 15.6162 86.2678 17.2603C86.2678 19.347 89.556 19.4735 89.556 22.1294V51.344C89.556 53.9999 86.2678 54.0631 86.2678 56.2131C86.2678 57.8572 87.7222 58.2366 89.809 58.2366H98.7251C100.812 58.2366 102.266 57.8572 102.266 56.2131C102.266 54.0631 98.9781 53.9999 98.9781 51.344V43.3764H102.14ZM101.065 19.6632H102.14C107.768 19.6632 111.752 24.0264 111.752 30.097C111.752 36.7367 107.009 39.0131 101.95 39.0131H98.9781V22.2558C98.9781 20.675 99.4207 19.6632 101.065 19.6632Z" fill="white"/>
<path d="M152.487 47.8661C151.854 47.8661 151.349 48.119 150.716 48.7513C148.44 51.091 146.416 52.166 143.444 52.166C137.816 52.166 134.022 48.3087 133.2 42.1749H149.641C152.74 42.1749 154.131 40.847 154.131 37.7484C154.131 31.2352 149.388 25.797 140.725 25.797C130.924 25.797 124.284 33.0058 124.284 42.9337C124.284 52.6719 130.987 59.1219 141.231 59.1219C147.491 59.1219 151.981 55.7072 153.688 51.6602C153.941 50.9646 154.068 50.3322 154.068 49.6999C154.068 48.5616 153.372 47.8661 152.487 47.8661ZM139.713 29.7176C143.95 29.7176 145.468 32.8793 145.468 36.9896C145.468 37.4955 145.404 38.2543 145.278 38.697H133.01C133.263 33.4485 135.919 29.7176 139.713 29.7176Z" fill="white"/>
<path d="M161.853 58.2366H170.769C172.729 58.2366 174.057 57.8572 174.057 56.3396C174.057 54.3793 170.895 54.2528 170.895 51.7234V40.5308C170.895 35.9146 172.476 34.9029 174.31 34.9029C176.017 34.9029 176.586 35.4087 178.23 35.4087C181.076 35.4087 183.036 33.7646 183.036 30.4764C183.036 27.6941 181.455 25.6705 178.104 25.6705C175.385 25.6705 172.097 27.6308 170.389 31.8043H170.136V28.8955C170.073 26.6823 169.504 25.7338 167.291 25.7338C164.382 25.7338 157.932 28.0735 157.932 29.9073C157.932 31.2352 158.88 31.5514 160.588 32.5632C161.22 33.0058 161.789 33.7646 161.726 35.3455V51.7234C161.726 54.2528 158.564 54.3793 158.564 56.3396C158.564 57.8572 159.892 58.2366 161.853 58.2366Z" fill="white"/>
<path d="M193.196 22.1926C196.484 22.1926 198.95 20.1691 198.95 16.9441C198.95 13.7191 196.484 11.6956 193.196 11.6956C189.971 11.6956 187.442 13.7191 187.442 16.9441C187.442 20.1691 189.971 22.1926 193.196 22.1926ZM189.086 58.2366H198.002C199.962 58.2366 201.29 57.8572 201.29 56.3396C201.29 54.3793 198.128 54.2528 198.128 51.7234V28.9588C198.065 26.9985 197.18 25.7338 194.461 25.7338C191.615 25.7338 185.165 27.5676 185.165 29.5911C185.165 30.8558 185.987 31.0455 187.442 32.1205C188.39 32.8161 188.959 33.6382 188.959 35.5352V51.7234C188.959 54.2528 185.797 54.3793 185.797 56.3396C185.797 57.8572 187.125 58.2366 189.086 58.2366Z" fill="white"/>
<path d="M219.605 59.1851C223.969 59.1851 227.447 57.0984 229.407 54.1263H229.66V54.9484C229.66 58.4896 230.102 59.1851 232.252 59.1851C235.983 59.1851 241.611 57.0351 241.611 54.9484C241.611 53.7469 240.789 53.3675 239.335 52.7984C238.26 52.419 237.754 51.6602 237.754 50.2058V14.225C237.691 12.1382 236.679 11 234.402 11C231.494 11 224.791 12.9603 224.791 14.8573C224.791 15.8691 225.233 16.1853 226.877 17.197C228.016 17.9559 228.648 18.8412 228.648 20.9279V27.8838C226.561 26.4926 224.095 25.6705 220.744 25.6705C211.132 25.6705 204.935 32.7529 204.935 42.744C204.935 52.7352 211.322 59.1851 219.605 59.1851ZM222.767 53.6837C217.645 53.6837 214.294 45.969 214.357 39.0131C214.42 33.0058 216.76 29.9073 220.617 29.9073C224.917 29.9073 228.585 35.1558 228.585 41.7955V45.7161C228.585 50.3322 226.245 53.6837 222.767 53.6837Z" fill="white"/>
<path d="M252.355 22.1926C255.644 22.1926 258.11 20.1691 258.11 16.9441C258.11 13.7191 255.644 11.6956 252.355 11.6956C249.13 11.6956 246.601 13.7191 246.601 16.9441C246.601 20.1691 249.13 22.1926 252.355 22.1926ZM248.245 58.2366H257.161C259.121 58.2366 260.449 57.8572 260.449 56.3396C260.449 54.3793 257.288 54.2528 257.288 51.7234V28.9588C257.224 26.9985 256.339 25.7338 253.62 25.7338C250.774 25.7338 244.324 27.5676 244.324 29.5911C244.324 30.8558 245.146 31.0455 246.601 32.1205C247.549 32.8161 248.119 33.6382 248.119 35.5352V51.7234C248.119 54.2528 244.957 54.3793 244.957 56.3396C244.957 57.8572 246.285 58.2366 248.245 58.2366Z" fill="white"/>
<path d="M281.294 59.1851C291.412 59.1851 299 52.166 299 41.922C299 31.6779 291.412 25.7338 281.863 25.7338C272.062 25.7338 264.094 32.6896 264.031 42.997C264.094 52.8616 271.366 59.1851 281.294 59.1851ZM283.002 54.9484C276.931 54.9484 273.832 45.4631 273.832 38.5073C273.832 33.2588 275.919 29.9073 280.03 29.9073C286.1 29.9073 289.199 39.3926 289.199 46.2219C289.199 51.5969 286.985 54.9484 283.002 54.9484Z" fill="white"/>
<path fill-rule="evenodd" clip-rule="evenodd" d="M35.0602 66.1203C52.2144 66.1203 66.1203 52.2144 66.1203 35.0602C66.1203 17.9061 52.2144 4 35.0602 4C17.9061 4 4 17.9061 4 35.0602C4 47.4036 11.2002 58.0655 21.6297 63.0745C21.6823 62.9749 21.7426 62.8781 21.8106 62.7842C25.1849 58.1374 27.4423 53.6228 29.0219 48.7302C22.5007 46.5026 18.6878 41.8585 16.5214 37.6493C15.2923 35.2611 14.576 32.9888 14.1654 31.3157C13.9593 30.4761 13.8282 29.7789 13.7475 29.2823C13.7207 29.1165 13.6825 28.8401 13.6331 28.453L13.6325 28.4465C13.6322 28.444 13.632 28.4423 13.6319 28.4416C13.5029 27.125 14.4656 25.9532 15.7822 25.8241C17.0969 25.6953 18.2674 26.6551 18.3991 27.9688C18.4296 28.2041 18.4553 28.3861 18.4762 28.5148C18.5389 28.9012 18.6457 29.4724 18.8178 30.1739C19.1637 31.5829 19.765 33.4832 20.7809 35.457C21.6188 37.0849 22.7264 38.7459 24.2007 40.2271C23.9589 39.0923 23.794 37.947 23.6816 36.8488C23.419 34.2811 23.4273 31.7941 23.498 29.965C23.5336 29.046 23.5852 28.2825 23.6286 27.7448C23.643 27.5654 23.6691 27.2813 23.7069 26.8924L23.7085 26.8782L23.7091 26.8719C23.8569 25.556 25.0423 24.61 26.3569 24.7576C27.6711 24.9052 28.6169 26.0899 28.47 27.4041L28.4699 27.4053L28.4693 27.4103C28.4385 27.7291 28.4166 27.9687 28.4036 28.1291C28.3649 28.6107 28.3176 29.307 28.285 30.1501C28.2194 31.8452 28.2152 34.0919 28.4473 36.3613C28.6828 38.6632 29.1456 40.818 29.9184 42.4259C30.0922 42.7874 30.273 43.1053 30.4608 43.3833C31.0898 40.5398 31.5638 37.5309 31.9536 34.2744C32.1108 32.9609 33.3031 32.0235 34.6166 32.1808C35.9301 32.338 36.8674 33.5302 36.7102 34.8437C36.3068 38.214 35.8106 41.3722 35.1443 44.3898C35.4445 44.2009 35.7551 43.9671 36.0779 43.6841C37.4194 42.5082 38.6902 40.7075 39.8096 38.6824C40.9132 36.6858 41.7904 34.6175 42.3949 33.0325C42.6956 32.2441 42.9252 31.585 43.0784 31.1268C43.1294 30.9742 43.2032 30.7452 43.2998 30.4399L43.3013 30.435C43.6816 29.1675 45.0165 28.4485 46.2834 28.8282C47.5506 29.2079 48.27 30.5431 47.8902 31.8103C47.8901 31.8106 47.89 31.811 47.8898 31.8115L47.888 31.8175C47.7675 32.1993 47.6787 32.4754 47.6216 32.6461C47.4506 33.1577 47.1987 33.8803 46.8709 34.7396C46.2187 36.4499 45.2509 38.7409 44.0023 40.9999C43.394 42.1003 42.6992 43.23 41.9177 44.2971C44.1881 43.5061 46.1164 42.2804 47.7104 40.9581C49.419 39.5409 50.7175 38.0287 51.5882 36.8682C52.0218 36.2904 52.3437 35.8069 52.553 35.4759C52.6227 35.3658 52.7169 35.2101 52.8357 35.0089L52.8381 35.0043C53.4743 33.8473 54.9277 33.4232 56.0865 34.0575C57.2473 34.6925 57.6732 36.148 57.038 37.3085C56.8371 37.652 56.6918 37.8946 56.602 38.0365C56.3333 38.4617 55.939 39.0517 55.4202 39.7432C54.3864 41.1212 52.8362 42.9305 50.7689 44.6453C46.9126 47.844 41.1686 50.7676 33.7048 49.8126C32.0718 54.9981 29.7301 59.8687 26.2256 64.846C29.0258 65.6753 31.991 66.1203 35.0602 66.1203Z" fill="white"/>
</svg>
