<svg width="37" height="14" viewBox="0 0 37 14" fill="none" xmlns="http://www.w3.org/2000/svg">
<path d="M6.75003 13.5001C10.478 13.5001 13.5001 10.478 13.5001 6.75003C13.5001 3.02209 10.478 0 6.75003 0C3.02209 0 0 3.02209 0 6.75003C0 10.478 3.02209 13.5001 6.75003 13.5001Z" fill="black"/>
<path fill-rule="evenodd" clip-rule="evenodd" d="M4.6978 13.1825C4.35621 13.0736 4.02643 12.9382 3.71085 12.7788C3.72126 12.76 3.73294 12.7415 3.74591 12.7236C4.47923 11.7138 4.96982 10.7326 5.31307 9.66936C3.8959 9.18526 3.06727 8.17601 2.59648 7.26125C2.32936 6.74225 2.17369 6.24843 2.08446 5.88484C2.03968 5.70238 2.01117 5.55086 1.99366 5.44293C1.98489 5.38891 1.97885 5.34565 1.97488 5.31471C1.9729 5.29923 1.97039 5.2777 1.97039 5.2777L1.96853 5.26023C1.9405 4.97412 2.14971 4.71944 2.43583 4.6914C2.72155 4.66339 2.9759 4.87199 3.00454 5.1575L3.00494 5.16113C3.00539 5.16513 3.00621 5.17226 3.00751 5.1823C3.01008 5.20241 3.01449 5.23419 3.02129 5.27613C3.03492 5.36012 3.05812 5.48425 3.09554 5.6367C3.17069 5.94291 3.30138 6.35587 3.52215 6.78483C3.70423 7.13861 3.94497 7.49959 4.26536 7.82151C4.21281 7.57486 4.17697 7.32596 4.15255 7.0873C4.09547 6.52927 4.09728 5.98881 4.11264 5.59131C4.12038 5.39157 4.13161 5.22567 4.14102 5.10881C4.14573 5.05034 4.14997 5.00402 4.15312 4.97175L4.15857 4.91884C4.19064 4.63315 4.44826 4.42755 4.73395 4.45964C5.01956 4.49171 5.2251 4.74917 5.19317 5.03475L5.19231 5.04288C5.19164 5.04924 5.19062 5.05924 5.18931 5.07267C5.18668 5.09954 5.18295 5.14004 5.17874 5.19232C5.17033 5.29697 5.16004 5.4483 5.15296 5.63153C5.13871 5.99991 5.13778 6.48816 5.18823 6.98136C5.23941 7.48161 5.34 7.94989 5.50793 8.29932C5.54569 8.37787 5.58499 8.44695 5.6258 8.50735C5.7625 7.88941 5.8655 7.23554 5.95021 6.52782C5.98437 6.24238 6.24348 6.03867 6.52892 6.07283C6.81437 6.107 7.01808 6.36609 6.98391 6.65155C6.89625 7.384 6.7884 8.07034 6.6436 8.72614C6.70885 8.68509 6.77638 8.63426 6.84652 8.57277C7.13806 8.31721 7.41425 7.92588 7.6575 7.48577C7.89734 7.05187 8.08797 6.60238 8.21935 6.25792C8.28469 6.0866 8.33459 5.94336 8.36788 5.84379C8.38451 5.79405 8.39696 5.75533 8.4051 5.72959C8.40916 5.71672 8.41214 5.70711 8.41401 5.701L8.41601 5.6945L8.41632 5.69344C8.49893 5.41815 8.78907 5.26174 9.0644 5.34424C9.33978 5.42678 9.49612 5.71694 9.41358 5.99231L9.40911 6.00699C9.40649 6.01554 9.40273 6.02768 9.39784 6.04313C9.38808 6.07405 9.37383 6.11832 9.35522 6.17396C9.31805 6.28513 9.26331 6.44217 9.19209 6.62893C9.05033 7.00061 8.84003 7.49849 8.56866 7.98942C8.43648 8.22855 8.28547 8.47407 8.11565 8.70596C8.60906 8.53406 9.0281 8.26769 9.37451 7.98035C9.74583 7.67234 10.028 7.34371 10.2172 7.09151C10.3114 6.96594 10.3815 6.86087 10.427 6.78895C10.4497 6.75302 10.4662 6.72552 10.4764 6.70804C10.4816 6.6993 10.4851 6.69307 10.4871 6.68957L10.4883 6.68743C10.6266 6.43599 10.943 6.34286 11.1948 6.48067C11.447 6.61868 11.5396 6.935 11.4016 7.1872L11.393 7.20253C11.3885 7.21054 11.3823 7.22138 11.3744 7.23483C11.3586 7.26173 11.3361 7.29916 11.3068 7.34541C11.2484 7.43783 11.1627 7.56603 11.05 7.71631C10.8253 8.01576 10.4884 8.40898 10.0392 8.78164C9.20112 9.4768 7.95281 10.1122 6.33078 9.90462C5.97472 11.0352 5.46361 12.097 4.6978 13.1825Z" fill="white"/>
<path d="M32.8939 8.81671C32.5868 8.81671 32.3157 8.76172 32.0803 8.65169C31.8453 8.54171 31.661 8.3843 31.5284 8.1795C31.3958 7.97466 31.3295 7.72813 31.3295 7.43987V7.28055H32.069V7.43987C32.069 7.67884 32.1431 7.85897 32.2909 7.98036C32.4386 8.09794 32.6399 8.15674 32.8939 8.15674C33.1518 8.15674 33.3434 8.10555 33.4687 8.00313C33.5974 7.9007 33.6622 7.76986 33.6622 7.61054C33.6622 7.50056 33.6295 7.41145 33.5652 7.34315C33.5047 7.2749 33.4136 7.21991 33.2922 7.17818C33.1747 7.13265 33.0304 7.09092 32.8598 7.05299L32.7291 7.02457C32.4556 6.96387 32.2207 6.88802 32.0232 6.79698C31.8302 6.70216 31.68 6.57889 31.5742 6.42717C31.4714 6.27546 31.4202 6.07823 31.4202 5.83548C31.4202 5.59273 31.4772 5.38602 31.5913 5.21534C31.7088 5.04087 31.8716 4.90811 32.0803 4.81708C32.2928 4.72226 32.5414 4.67485 32.8256 4.67485C33.1103 4.67485 33.3624 4.72416 33.5822 4.82277C33.806 4.9176 33.9805 5.06173 34.1058 5.25517C34.2345 5.44481 34.2994 5.68376 34.2994 5.97202V6.1427H33.5598V5.97202C33.5598 5.82031 33.5291 5.69894 33.4687 5.6079C33.4116 5.51308 33.3283 5.44481 33.2181 5.40309C33.1084 5.35757 32.9773 5.33481 32.8256 5.33481C32.598 5.33481 32.4293 5.37843 32.3191 5.46567C32.2134 5.54911 32.1602 5.6648 32.1602 5.81272C32.1602 5.91133 32.1846 5.99478 32.2338 6.06305C32.287 6.13132 32.365 6.18822 32.4673 6.23373C32.5697 6.27925 32.7004 6.31907 32.8598 6.35321L32.9904 6.38166C33.2751 6.44234 33.5218 6.5201 33.7304 6.61492C33.9425 6.70974 34.1078 6.83491 34.2253 6.99039C34.3427 7.14591 34.4017 7.34505 34.4017 7.58783C34.4017 7.83055 34.3388 8.04486 34.214 8.23069C34.0927 8.41277 33.9181 8.55688 33.6905 8.6631C33.4667 8.76548 33.201 8.81671 32.8939 8.81671Z" fill="url(#paint0_linear_36_78)"/>
<path d="M29.3634 8.81671C28.8701 8.81671 28.4796 8.68016 28.1915 8.40707C27.9029 8.13017 27.7591 7.73573 27.7591 7.22366V6.26787C27.7591 5.75583 27.9029 5.36326 28.1915 5.09017C28.4796 4.81329 28.8701 4.67485 29.3634 4.67485C29.8529 4.67485 30.2302 4.8095 30.4954 5.07879C30.765 5.34429 30.8995 5.71031 30.8995 6.17684V6.21098H30.16V6.15408C30.16 5.91892 30.0937 5.72549 29.9606 5.57377C29.8319 5.42205 29.6325 5.34619 29.3634 5.34619C29.0978 5.34619 28.8891 5.42774 28.7375 5.59084C28.5859 5.75393 28.5098 5.97582 28.5098 6.25649V7.23507C28.5098 7.51192 28.5859 7.73383 28.7375 7.9007C28.8891 8.06382 29.0978 8.14538 29.3634 8.14538C29.6325 8.14538 29.8319 8.06952 29.9606 7.91776C30.0937 7.76225 30.16 7.56886 30.16 7.33749V7.23507H30.8995V7.31473C30.8995 7.78126 30.765 8.14913 30.4954 8.41843C30.2302 8.68397 29.8529 8.81671 29.3634 8.81671Z" fill="url(#paint1_linear_36_78)"/>
<path d="M25.5526 8.81671C25.052 8.81671 24.6537 8.68016 24.3578 8.40707C24.0624 8.13017 23.9142 7.73573 23.9142 7.22366V6.26787C23.9142 5.75583 24.0624 5.36326 24.3578 5.09017C24.6537 4.81329 25.052 4.67485 25.5526 4.67485C26.0533 4.67485 26.4516 4.81329 26.7475 5.09017C27.0434 5.36326 27.1911 5.75583 27.1911 6.26787V7.22366C27.1911 7.73573 27.0434 8.13017 26.7475 8.40707C26.4516 8.68016 26.0533 8.81671 25.5526 8.81671ZM25.5526 8.14538C25.8334 8.14538 26.0514 8.06382 26.2069 7.9007C26.3624 7.73763 26.4404 7.51953 26.4404 7.24643V6.24511C26.4404 5.97202 26.3624 5.75393 26.2069 5.59084C26.0514 5.42774 25.8334 5.34619 25.5526 5.34619C25.2757 5.34619 25.0578 5.42774 24.8984 5.59084C24.7429 5.75393 24.6654 5.97202 24.6654 6.24511V7.24643C24.6654 7.51953 24.7429 7.73763 24.8984 7.9007C25.0578 8.06382 25.2757 8.14538 25.5526 8.14538Z" fill="url(#paint2_linear_36_78)"/>
<path d="M20.1023 8.73706V8.07708H20.6257V5.41447H20.1023V4.7545H21.7409C22.2757 4.7545 22.6813 4.89104 22.9582 5.16414C23.239 5.43343 23.3794 5.83548 23.3794 6.37028V7.12129C23.3794 7.65608 23.239 8.06002 22.9582 8.33312C22.6813 8.60241 22.2757 8.73706 21.7409 8.73706H20.1023ZM21.3767 8.05431H21.7521C22.0558 8.05431 22.2776 7.97466 22.418 7.81539C22.5579 7.65608 22.6281 7.43231 22.6281 7.14406V6.34752C22.6281 6.05547 22.5579 5.83169 22.418 5.67618C22.2776 5.51688 22.0558 5.43722 21.7521 5.43722H21.3767V8.05431Z" fill="url(#paint3_linear_36_78)"/>
<path d="M17.5001 9.68159V3.81844C17.5001 2.87246 18.2669 2.1056 19.2129 2.1056V2.96202C18.7399 2.96202 18.3565 3.34545 18.3565 3.81844V9.68159C18.3565 10.1546 18.7399 10.538 19.2129 10.538H35.287C35.7604 10.538 36.1436 10.1546 36.1436 9.68159V3.81844C36.1436 3.34545 35.7604 2.96202 35.287 2.96202V2.1056C36.2333 2.1056 37.0001 2.87246 37.0001 3.81844V9.68159C37.0001 10.6276 36.2333 11.3945 35.287 11.3945H19.2129C18.2669 11.3945 17.5001 10.6276 17.5001 9.68159ZM35.287 2.1056V2.96202H19.2129V2.1056H35.287Z" fill="url(#paint4_linear_36_78)"/>
<defs>
<linearGradient id="paint0_linear_36_78" x1="-184.248" y1="-8.33082" x2="-99.0381" y2="133.524" gradientUnits="userSpaceOnUse">
<stop stop-color="#3424EE"/>
<stop offset="1" stop-color="#7367FF"/>
</linearGradient>
<linearGradient id="paint1_linear_36_78" x1="-138.178" y1="-8.33082" x2="-52.1004" y2="131.854" gradientUnits="userSpaceOnUse">
<stop stop-color="#3424EE"/>
<stop offset="1" stop-color="#7367FF"/>
</linearGradient>
<linearGradient id="paint2_linear_36_78" x1="-89.0094" y1="-8.33082" x2="-1.3231" y2="128.526" gradientUnits="userSpaceOnUse">
<stop stop-color="#3424EE"/>
<stop offset="1" stop-color="#7367FF"/>
</linearGradient>
<linearGradient id="paint3_linear_36_78" x1="-45.9674" y1="-8.93405" x2="46.6757" y2="130.091" gradientUnits="userSpaceOnUse">
<stop stop-color="#3424EE"/>
<stop offset="1" stop-color="#7367FF"/>
</linearGradient>
<linearGradient id="paint4_linear_36_78" x1="16.5309" y1="2.11893" x2="38.712" y2="12.1126" gradientUnits="userSpaceOnUse">
<stop stop-color="#3424EE"/>
<stop offset="1" stop-color="#7367FF"/>
</linearGradient>
</defs>
</svg>
