<svg xmlns="http://www.w3.org/2000/svg" width="20" height="21" viewBox="0 0 20 21" fill="none">
    <path fill-rule="evenodd" clip-rule="evenodd"
        d="M2 4.6499C2 3.40726 3.00736 2.3999 4.25 2.3999H15.75C16.9926 2.3999 18 3.40726 18 4.6499V13.1499C18 14.3925 16.9926 15.3999 15.75 15.3999H12.6448C12.8417 16.0618 13.2292 16.6417 13.7449 17.0766C13.9856 17.2797 14.0738 17.6115 13.9657 17.9073C13.8576 18.2031 13.5762 18.3999 13.2613 18.3999H6.73881C6.42387 18.3999 6.14248 18.2031 6.03437 17.9073C5.92627 17.6115 6.01449 17.2797 6.25522 17.0766C6.77086 16.6417 7.15838 16.0618 7.35525 15.3999H4.25C3.00736 15.3999 2 14.3925 2 13.1499V4.6499ZM3.5 4.6499C3.5 4.23569 3.83579 3.8999 4.25 3.8999H15.75C16.1642 3.8999 16.5 4.23569 16.5 4.6499V12.1499C16.5 12.5641 16.1642 12.8999 15.75 12.8999H4.25C3.83579 12.8999 3.5 12.5641 3.5 12.1499V4.6499Z"
        fill="#6059FB" />
</svg>
