<svg xmlns="http://www.w3.org/2000/svg" width="20" height="21" viewBox="0 0 20 21" fill="none">
    <path d="M14 6.7998H6V14.7998H14V6.7998Z" fill="#6059FB" />
    <path fill-rule="evenodd" clip-rule="evenodd"
        d="M9.25 3.7998V2.5498C9.25 2.13559 9.58579 1.7998 10 1.7998C10.4142 1.7998 10.75 2.13559 10.75 2.5498V3.7998H12.25V2.5498C12.25 2.13559 12.5858 1.7998 13 1.7998C13.4142 1.7998 13.75 2.13559 13.75 2.5498V3.7998H14.25C15.7688 3.7998 17 5.03102 17 6.5498V7.0498H18.25C18.6642 7.0498 19 7.38559 19 7.79981C19 8.21402 18.6642 8.5498 18.25 8.5498H17V10.0498H18.25C18.6642 10.0498 19 10.3856 19 10.7998C19 11.214 18.6642 11.5498 18.25 11.5498H17V13.0498H18.25C18.6642 13.0498 19 13.3856 19 13.7998C19 14.214 18.6642 14.5498 18.25 14.5498H17V15.0498C17 16.5686 15.7688 17.7998 14.25 17.7998H13.75V19.0498C13.75 19.464 13.4142 19.7998 13 19.7998C12.5858 19.7998 12.25 19.464 12.25 19.0498V17.7998H10.75V19.0498C10.75 19.464 10.4142 19.7998 10 19.7998C9.58579 19.7998 9.25 19.464 9.25 19.0498V17.7998H7.75V19.0498C7.75 19.464 7.41421 19.7998 7 19.7998C6.58579 19.7998 6.25 19.464 6.25 19.0498V17.7998H5.75C4.23122 17.7998 3 16.5686 3 15.0498V14.5498H1.75C1.33579 14.5498 1 14.214 1 13.7998C1 13.3856 1.33579 13.0498 1.75 13.0498H3V11.5498H1.75C1.33579 11.5498 1 11.214 1 10.7998C1 10.3856 1.33579 10.0498 1.75 10.0498H3V8.5498H1.75C1.33579 8.5498 1 8.21402 1 7.7998C1 7.38559 1.33579 7.0498 1.75 7.0498H3V6.5498C3 5.03102 4.23122 3.7998 5.75 3.7998H6.25V2.5498C6.25 2.13559 6.58579 1.7998 7 1.7998C7.41421 1.7998 7.75 2.13559 7.75 2.5498V3.7998H9.25ZM4.5 6.5498C4.5 5.85945 5.05964 5.2998 5.75 5.2998H14.25C14.9404 5.2998 15.5 5.85945 15.5 6.5498V15.0498C15.5 15.7402 14.9404 16.2998 14.25 16.2998H5.75C5.05964 16.2998 4.5 15.7402 4.5 15.0498V6.5498Z"
        fill="#6059FB" />
</svg>
