<svg xmlns="http://www.w3.org/2000/svg" viewBox="0 0 200 150">
<style>
.t { fill: none; stroke: #7b6ff0; stroke-linecap: round; stroke-linejoin: round; }
.t1 { stroke-opacity: 0.14; stroke-width: 1.5; }
.t2 { stroke-opacity: 0.1; stroke-width: 1; }
.v { fill: #7b6ff0; fill-opacity: 0.15; }
.vr { fill: none; stroke: #7b6ff0; stroke-opacity: 0.14; stroke-width: 1; }
</style>
<!-- Pattern 7: Diamond routing -->
<path class="t t1" d="M100,20 L145,65 L100,110 L55,65 Z"/>
<path class="t t2" d="M55,65 L15,65 L0,65"/>
<path class="t t2" d="M145,65 L185,65 L200,65"/>
<path class="t t2" d="M100,20 L100,5 L110,0"/>
<path class="t t2" d="M100,110 L100,130 L110,140"/>
<circle class="v" cx="100" cy="20" r="3"/>
<circle class="vr" cx="100" cy="20" r="5.5"/>
<circle class="v" cx="145" cy="65" r="3"/>
<circle class="vr" cx="145" cy="65" r="5.5"/>
<circle class="v" cx="100" cy="110" r="3"/>
<circle class="vr" cx="100" cy="110" r="5.5"/>
<circle class="v" cx="55" cy="65" r="3"/>
<circle class="vr" cx="55" cy="65" r="5.5"/>
<circle class="v" cx="110" cy="0" r="3"/>
<circle class="vr" cx="110" cy="0" r="5.5"/>
<circle class="v" cx="110" cy="140" r="3"/>
<circle class="vr" cx="110" cy="140" r="5.5"/>
</svg>
