<svg xmlns="http://www.w3.org/2000/svg" viewBox="0 0 200 150">
<style>
.t { fill: none; stroke: #3424ee; stroke-linecap: round; stroke-linejoin: round; }
.t1 { stroke-opacity: 0.09; stroke-width: 1.5; }
.t2 { stroke-opacity: 0.07; stroke-width: 1; }
.v { fill: #3424ee; fill-opacity: 0.1; }
.vr { fill: none; stroke: #3424ee; stroke-opacity: 0.09; stroke-width: 1; }
</style>
<!-- Pattern 6: Converging traces -->
<path class="t t1" d="M0,20 L50,20 L65,35 L90,35 L105,50 L105,70"/>
<path class="t t1" d="M200,30 L155,30 L140,45 L115,45 L105,55 L105,70"/>
<path class="t t2" d="M100,150 L100,110 L105,105 L105,70"/>
<path class="t t2" d="M105,70 L120,85 L160,85"/>
<circle class="v" cx="105" cy="70" r="3"/>
<circle class="vr" cx="105" cy="70" r="5.5"/>
<circle class="v" cx="50" cy="20" r="3"/>
<circle class="vr" cx="50" cy="20" r="5.5"/>
<circle class="v" cx="155" cy="30" r="3"/>
<circle class="vr" cx="155" cy="30" r="5.5"/>
<circle class="v" cx="100" cy="110" r="3"/>
<circle class="vr" cx="100" cy="110" r="5.5"/>
<circle class="v" cx="160" cy="85" r="3"/>
<circle class="vr" cx="160" cy="85" r="5.5"/>
</svg>
