<svg xmlns="http://www.w3.org/2000/svg" viewBox="0 0 200 150">
<style>
.t { fill: none; stroke: #3424ee; stroke-linecap: round; stroke-linejoin: round; }
.t1 { stroke-opacity: 0.09; stroke-width: 1.5; }
.t2 { stroke-opacity: 0.07; stroke-width: 1; }
.v { fill: #3424ee; fill-opacity: 0.1; }
.vr { fill: none; stroke: #3424ee; stroke-opacity: 0.09; stroke-width: 1; }
</style>
<!-- Pattern 10: Mixed angles -->
<path class="t t1" d="M0,70 L70,70 L85,55 L120,55 L135,40 L200,40"/>
<path class="t t2" d="M70,70 L85,85 L120,85 L135,100 L135,130"/>
<path class="t t1" d="M20,0 L60,40 L60,80 L80,100 L80,150"/>
<path class="t t2" d="M60,40 L30,40"/>
<path class="t t2" d="M60,80 L30,80"/>
<circle class="v" cx="70" cy="70" r="3"/>
<circle class="vr" cx="70" cy="70" r="5.5"/>
<circle class="v" cx="135" cy="130" r="3"/>
<circle class="vr" cx="135" cy="130" r="5.5"/>
<circle class="v" cx="30" cy="40" r="3"/>
<circle class="vr" cx="30" cy="40" r="5.5"/>
<circle class="v" cx="30" cy="80" r="3"/>
<circle class="vr" cx="30" cy="80" r="5.5"/>
<circle class="v" cx="135" cy="40" r="3"/>
<circle class="vr" cx="135" cy="40" r="5.5"/>
</svg>
