<svg xmlns="http://www.w3.org/2000/svg" viewBox="13 -2 152 100"><path d="M69.189 29.708v-8.993a67.728 67.728 0 012.653-.136c24.596-.773 40.733 21.134 40.733 21.134S95.147 65.919 76.46 65.919c-2.692 0-5.1-.433-7.271-1.162v-27.27c9.575 1.156 11.5 5.386 17.258 14.982L99.25 41.674s-9.345-12.258-25.1-12.258c-1.715 0-3.353.12-4.961.292zm0-29.707v13.433c.882-.07 1.766-.126 2.653-.158 34.205-1.152 56.489 28.052 56.489 28.052s-25.597 31.124-52.262 31.124c-2.443 0-4.73-.225-6.88-.606v8.303c1.838.234 3.742.372 5.73.372 24.815 0 42.76-12.672 60.138-27.671 2.879 2.307 14.675 7.919 17.1 10.378-16.523 13.832-55.028 24.98-76.857 24.98a63.43 63.43 0 01-6.111-.318v11.67h94.316V0H69.19zm0 64.756v7.09c-22.952-4.093-29.322-27.95-29.322-27.95s11.02-12.21 29.322-14.189v7.779c-.014 0-.024-.004-.036-.004-9.604-1.154-17.108 7.82-17.108 7.82s4.204 15.106 17.144 19.454zM28.425 42.862s13.602-20.073 40.764-22.148v-7.28c-30.084 2.414-56.136 27.893-56.136 27.893S27.807 83.985 69.19 87.89v-7.74c-30.368-3.822-40.765-37.288-40.765-37.288z" fill-rule="evenodd" fill="currentColor"/></svg>
